<?xml version="1.0" encoding="UTF-8" standalone="no"?>
<!DOCTYPE svg PUBLIC "-//W3C//DTD SVG 1.1//EN" "http://www.w3.org/Graphics/SVG/1.1/DTD/svg11.dtd">
<svg version="1.1" xmlns="http://www.w3.org/2000/svg" xmlns:xlink="http://www.w3.org/1999/xlink" preserveAspectRatio="xMidYMid meet" viewBox="3.098522167487685 288.68985221674876 423.8415167104397 69.58896551724143" width="185" height="28.9"><defs><path d="M190.97 314.55C190.97 319.28 188.71 321.64 184.19 321.64L155.43 321.64L155.43 289.69C172.69 289.69 182.28 289.69 184.19 289.69C187.53 289.69 188.81 291.49 189.33 291.69C190.42 292.95 190.97 294.62 190.97 296.78C190.97 300.34 190.97 311 190.97 314.55ZM185.69 296.67C185.7 296.05 185.48 295.44 185.06 294.97C184.66 294.52 184.09 294.27 183.49 294.28C181.96 294.28 174.34 294.28 160.62 294.28L160.62 316.98C174.04 316.98 181.5 316.98 183 316.98C184.8 317 185.69 316.22 185.69 314.64C185.69 303.86 185.69 297.87 185.69 296.67Z" id="c2XaQIaw6"></path><path d="M224.71 321.64C210.99 321.64 203.36 321.64 201.84 321.64C197.32 321.64 195.06 319.28 195.06 314.55C195.06 303.89 195.06 297.97 195.06 296.78C195.06 292.05 197.32 289.69 201.84 289.69L224.71 289.69L224.71 294.28C211.43 294.28 204.06 294.28 202.58 294.28C201.16 294.28 200.44 295.12 200.44 296.8L200.44 302.58L222.87 302.58L222.87 307.72L200.44 307.72C200.44 311.87 200.44 314.18 200.44 314.64C200.44 316.24 201.34 317.03 203.13 317.03L224.71 317.03L224.71 321.64Z" id="e1tnR60GeG"></path><path d="M263.49 289.69C254.28 308.86 249.16 319.51 248.14 321.64C246.11 321.64 244.08 321.64 242.06 321.64C241.04 319.51 235.92 308.86 226.71 289.69L232.38 289.69L245.09 315.54L257.8 289.69L263.49 289.69Z" id="d6CEAroH0K"></path><path d="M272.81 321.64L267.73 321.64L267.73 316.41L272.81 316.41L272.81 321.64Z" id="cSH8CSlaz"></path><path d="M313.68 321.64L308.21 321.64L305.46 316.01L285.28 316.01L282.52 321.64L277.05 321.64L292.4 289.69L298.38 289.69L313.68 321.64ZM303.18 311.37L295.36 295.16L287.56 311.37L303.18 311.37Z" id="aIJxMRgMz"></path><path d="M349.67 303.75C349.67 309.22 346.71 311.95 340.8 311.95L321.06 311.95L321.06 321.64L315.78 321.64C315.78 307.6 315.78 299.81 315.78 298.25C315.78 295.29 316.31 293.2 317.37 291.94C318.57 290.47 320.65 289.74 323.6 289.74C334.4 289.74 340.4 289.74 341.6 289.74C346.97 289.74 349.66 292.33 349.67 297.52C349.67 300.84 349.67 302.92 349.67 303.75ZM344.04 297.02C344.04 295.76 343.82 294.92 343.41 294.63C342.94 294.35 342.4 294.23 341.86 294.28C340.1 294.28 326.06 294.28 324.3 294.28C323.04 294.28 322.22 294.52 321.78 295C321.34 295.48 321.08 296.32 321.08 297.52C321.08 298.18 321.08 301.47 321.08 307.39C333.34 307.39 340.15 307.39 341.51 307.39C342.24 307.46 342.96 307.23 343.51 306.76C343.92 306.14 344.11 305.39 344.04 304.65C344.04 303.12 344.04 297.78 344.04 297.02Z" id="a1RAq5WeZJ"></path><path d="M387.85 303.75C387.85 309.22 384.89 311.95 378.97 311.95L359.24 311.95L359.24 321.64L353.95 321.64C353.95 307.6 353.95 299.81 353.95 298.25C353.95 295.29 354.48 293.2 355.55 291.94C356.75 290.47 358.82 289.74 361.78 289.74C372.58 289.74 378.58 289.74 379.78 289.74C385.16 289.74 387.85 292.33 387.85 297.52C387.85 300.84 387.85 302.92 387.85 303.75ZM382.22 297.02C382.22 295.76 382 294.92 381.59 294.63C381.12 294.35 380.58 294.23 380.04 294.28C378.28 294.28 364.24 294.28 362.48 294.28C361.22 294.28 360.4 294.52 359.96 295C359.52 295.48 359.26 296.32 359.26 297.52C359.26 298.18 359.26 301.47 359.26 307.39C371.52 307.39 378.33 307.39 379.69 307.39C380.42 307.46 381.14 307.23 381.69 306.76C382.1 306.14 382.29 305.39 382.22 304.65C382.22 303.12 382.22 297.78 382.22 297.02Z" id="d1CzNWog"></path><path d="M421.2 318.88C419.49 320.67 417.11 321.67 414.63 321.64C413.18 321.64 405.97 321.64 392.98 321.64L392.98 316.85C405.69 316.85 412.75 316.85 414.17 316.85C415.4 316.86 416.59 316.37 417.46 315.49C418.35 314.65 418.85 313.49 418.85 312.27C418.87 311.08 418.39 309.93 417.53 309.12C416.65 308.28 415.48 307.82 414.27 307.86C412.86 307.86 401.66 307.86 400.26 307.86C397.83 307.91 395.49 307 393.73 305.33C391.9 303.59 390.92 301.14 391.04 298.61C391 293.74 394.92 289.75 399.79 289.72C399.83 289.71 399.87 289.71 399.91 289.72C401.33 289.72 408.44 289.72 421.24 289.72L421.24 294.45C408.68 294.45 401.7 294.45 400.31 294.45C399.21 294.43 398.15 294.89 397.42 295.71C396.66 296.53 396.24 297.62 396.27 298.74C396.24 299.82 396.66 300.86 397.44 301.61C398.24 302.33 399.28 302.71 400.36 302.66C401.75 302.67 412.92 302.71 414.32 302.71C416.84 302.66 419.29 303.61 421.12 305.35C423.02 307.15 424.04 309.68 423.93 312.29C423.97 314.77 422.98 317.15 421.2 318.88Z" id="e19oENm5kB"></path><path d="M163.9 350.3L162.92 346.17L156.86 346.17L155.89 350.28L153.3 350.28L158.39 331.84L161.42 331.84L166.46 350.3L163.9 350.3ZM160.84 337.45C160.74 337.01 160.62 336.55 160.51 336.07C160.4 335.59 160.3 335.14 160.21 334.74C160.12 334.33 160 333.82 159.89 333.36C159.79 333.82 159.68 334.28 159.58 334.74C159.48 335.2 159.39 335.57 159.27 336.05C159.16 336.52 159.05 336.99 158.94 337.45C158.83 337.89 158.29 340.12 157.31 344.14L162.47 344.14C161.6 340.57 161.06 338.34 160.84 337.45Z" id="aQAcNFodd"></path><path d="M180.39 346.13C180.22 346.83 179.94 347.51 179.57 348.13C179.27 348.61 178.89 349.04 178.45 349.39C178.07 349.7 177.64 349.95 177.19 350.13C176.8 350.28 176.4 350.39 175.99 350.46C175.67 350.51 175.35 350.53 175.03 350.54C174.44 350.55 173.87 350.45 173.32 350.26C172.95 350.14 172.6 349.97 172.26 349.77C172.26 350.14 172.26 351.98 172.26 355.28L169.89 355.28L169.89 336.34L171.71 336.34C171.91 337.26 172.03 337.77 172.05 337.87C172.25 337.65 172.46 337.44 172.68 337.24C172.92 337.02 173.19 336.82 173.47 336.66C173.79 336.49 174.12 336.35 174.47 336.26C174.88 336.14 175.31 336.09 175.73 336.1C176.28 336.11 176.82 336.18 177.35 336.32C177.98 336.49 178.54 336.83 178.99 337.3C179.56 337.91 179.99 338.65 180.25 339.45C180.61 340.68 180.76 341.96 180.71 343.24C180.72 344.21 180.62 345.18 180.39 346.13ZM178.1 340.56C177.99 339.99 177.78 339.46 177.47 338.97C177.24 338.64 176.92 338.38 176.55 338.22C176.2 338.09 175.82 338.03 175.44 338.03C174.78 338.02 174.12 338.16 173.52 338.46C173.06 338.67 172.64 338.94 172.26 339.26C172.26 340.15 172.26 347.25 172.26 348.14C172.45 348.22 172.77 348.32 173.23 348.46C173.75 348.61 174.29 348.68 174.84 348.67C175.25 348.67 175.66 348.6 176.06 348.48C176.5 348.32 176.89 348.05 177.18 347.68C177.56 347.19 177.84 346.63 178 346.04C178.24 345.12 178.36 344.18 178.34 343.24C178.35 342.34 178.27 341.44 178.1 340.56Z" id="afGlOgIkU"></path><path d="M195.93 346.13C195.76 346.83 195.48 347.51 195.11 348.13C194.82 348.61 194.44 349.03 194 349.39C193.62 349.7 193.19 349.95 192.74 350.13C192.35 350.28 191.95 350.39 191.54 350.46C191.22 350.51 190.9 350.53 190.58 350.54C190 350.55 189.42 350.45 188.87 350.26C188.5 350.14 188.15 349.97 187.81 349.77C187.81 350.14 187.81 351.98 187.81 355.28L185.44 355.28L185.44 336.34L187.27 336.34C187.48 337.26 187.59 337.77 187.61 337.87C187.81 337.65 188.02 337.44 188.24 337.24C188.48 337.01 188.74 336.82 189.03 336.66C189.35 336.48 189.68 336.35 190.03 336.26C190.44 336.14 190.87 336.09 191.29 336.1C191.84 336.11 192.38 336.18 192.91 336.32C193.54 336.49 194.1 336.83 194.55 337.3C195.12 337.91 195.55 338.65 195.81 339.45C196.16 340.68 196.31 341.96 196.25 343.24C196.27 344.21 196.16 345.18 195.93 346.13ZM193.64 340.56C193.53 339.99 193.32 339.46 193.01 338.97C192.78 338.64 192.46 338.38 192.09 338.22C191.73 338.09 191.36 338.02 190.98 338.03C190.31 338.02 189.65 338.16 189.06 338.46C188.6 338.67 188.18 338.94 187.79 339.26C187.79 340.15 187.79 347.25 187.79 348.14C187.98 348.22 188.31 348.32 188.77 348.46C189.31 348.62 189.86 348.7 190.42 348.69C190.85 348.69 191.28 348.63 191.68 348.49C192.12 348.34 192.51 348.07 192.8 347.7C193.18 347.21 193.46 346.65 193.62 346.05C193.84 345.13 193.93 344.19 193.88 343.24C193.9 342.34 193.82 341.44 193.64 340.56Z" id="boS6ap7Hb"></path><path d="M207.51 348.58C207.25 349.09 206.86 349.52 206.38 349.84C205.89 350.13 205.35 350.34 204.79 350.43C204.19 350.53 203.58 350.59 202.97 350.59C202.6 350.59 202.23 350.56 201.86 350.51C201.49 350.46 201.16 350.39 200.86 350.32C200.53 350.25 200.2 350.16 199.88 350.03C199.88 349.82 199.88 348.14 199.88 347.93C200.27 348.05 200.65 348.15 201.02 348.24C201.35 348.33 201.68 348.41 202.02 348.46C202.33 348.52 202.65 348.55 202.97 348.56C203.3 348.56 203.64 348.53 203.97 348.48C204.28 348.43 204.57 348.33 204.84 348.17C205.1 348.02 205.32 347.8 205.47 347.54C205.64 347.22 205.72 346.86 205.71 346.49C205.72 346.18 205.67 345.87 205.56 345.58C205.48 345.36 205.34 345.15 205.17 344.99C204.99 344.82 204.79 344.68 204.57 344.58C204.35 344.47 204.09 344.36 203.81 344.25C203.67 344.2 202.58 343.75 202.44 343.7C202.16 343.57 201.88 343.44 201.61 343.29C201.28 343.1 200.98 342.88 200.71 342.6C200.41 342.29 200.17 341.93 199.99 341.54C199.78 341.05 199.68 340.52 199.7 339.98C199.63 338.87 200.1 337.79 200.96 337.08C201.92 336.38 203.09 336.03 204.28 336.09C204.7 336.08 205.12 336.11 205.54 336.17C205.92 336.24 206.26 336.3 206.54 336.38C206.84 336.44 207.14 336.53 207.44 336.63C207.44 336.83 207.44 338.4 207.44 338.6C207.11 338.5 206.77 338.41 206.43 338.34C206.13 338.27 205.8 338.2 205.43 338.14C205.07 338.08 204.71 338.05 204.35 338.05C203.76 338.03 203.17 338.16 202.64 338.41C202.14 338.7 201.86 339.26 201.92 339.84C201.91 340.14 201.97 340.45 202.08 340.73C202.18 340.95 202.32 341.14 202.5 341.29C202.68 341.42 202.86 341.54 203.06 341.63C203.26 341.72 203.44 341.8 203.64 341.87C203.78 341.92 204.87 342.37 205.01 342.42C205.38 342.56 205.75 342.73 206.09 342.93C206.45 343.14 206.77 343.4 207.04 343.71C207.33 344.05 207.56 344.44 207.71 344.86C207.88 345.38 207.97 345.93 207.95 346.48C207.98 347.21 207.83 347.93 207.51 348.58Z" id="e1cDpTLO"></path><path d="M219.8 342.53L219.8 340.29L229.81 340.29L229.81 342.53L219.8 342.53Z" id="bc9UUmVLH"></path><path d="M242.99 350.3L242.99 331.86L251.95 331.86L251.95 334.07L245.36 334.07L245.36 339.23L251.42 339.23L251.42 341.29L245.36 341.29L245.36 348.08L251.95 348.08L251.95 350.3L242.99 350.3Z" id="cRgWDhQK"></path><path d="M264.33 350.3C264.33 344.2 264.33 340.81 264.33 340.13C264.35 339.76 264.28 339.39 264.13 339.04C264.02 338.8 263.84 338.6 263.6 338.47C263.38 338.35 263.13 338.27 262.88 338.25C262.61 338.25 262.36 338.21 262.09 338.21C261.61 338.21 261.13 338.29 260.67 338.44C260.25 338.57 259.85 338.73 259.46 338.92C259.04 339.11 258.64 339.34 258.27 339.61C258.27 340.32 258.27 343.9 258.27 350.33L255.9 350.33L255.9 336.34L257.66 336.34C257.98 337.37 258.15 337.94 258.19 338.05C258.61 337.7 259.06 337.37 259.53 337.08C259.99 336.81 260.46 336.58 260.96 336.39C261.51 336.18 262.1 336.07 262.7 336.08C263.24 336.07 263.78 336.14 264.3 336.27C264.77 336.39 265.21 336.62 265.57 336.95C265.94 337.3 266.23 337.73 266.4 338.21C266.62 338.86 266.72 339.54 266.7 340.23C266.7 340.9 266.7 344.26 266.7 350.32L264.33 350.3Z" id="b115dTTaQ"></path><path d="M280.59 350.3C280.42 349.4 280.32 348.9 280.3 348.8C280.18 348.94 280 349.11 279.79 349.31C279.54 349.54 279.27 349.73 278.98 349.89C278.64 350.1 278.27 350.26 277.88 350.37C277.42 350.51 276.94 350.57 276.45 350.57C276.09 350.57 275.73 350.53 275.38 350.47C274.98 350.41 274.59 350.28 274.23 350.1C273.83 349.89 273.46 349.62 273.14 349.31C272.75 348.94 272.43 348.5 272.2 348.01C271.91 347.38 271.69 346.73 271.57 346.05C271.4 345.15 271.32 344.24 271.33 343.32C271.27 342.01 271.49 340.69 271.96 339.46C272.29 338.63 272.81 337.88 273.48 337.28C274.03 336.8 274.68 336.47 275.38 336.3C275.91 336.17 276.46 336.09 277.01 336.08C277.4 336.07 277.79 336.12 278.16 336.24C278.47 336.33 278.77 336.45 279.05 336.6C279.27 336.72 279.48 336.86 279.68 337.02C279.83 337.16 279.95 337.28 280.04 337.37C280.04 336.96 280.04 334.95 280.04 331.33L282.41 331.33L282.41 350.3L280.59 350.3ZM280.01 339.08C279.92 339.01 279.79 338.92 279.62 338.8C279.42 338.68 279.21 338.56 278.99 338.46C278.73 338.34 278.46 338.24 278.19 338.17C277.88 338.09 277.56 338.05 277.24 338.05C276.81 338.05 276.39 338.11 275.98 338.22C275.53 338.35 275.14 338.6 274.83 338.95C274.44 339.41 274.15 339.96 273.99 340.54C273.74 341.45 273.63 342.39 273.66 343.32C273.63 344.3 273.73 345.27 273.96 346.22C274.1 346.8 274.37 347.35 274.75 347.81C275.03 348.14 275.4 348.38 275.82 348.49C276.19 348.57 276.57 348.62 276.95 348.62C277.29 348.62 277.62 348.57 277.94 348.48C278.24 348.39 278.54 348.27 278.82 348.12C279.06 347.99 279.3 347.84 279.52 347.68C279.72 347.54 279.87 347.42 279.98 347.33C279.99 345.68 280 340.73 280.01 339.08Z" id="a122kMt1Rp"></path><path d="M302.14 350.1C301.85 350.18 301.56 350.26 301.24 350.33C300.94 350.41 300.63 350.46 300.32 350.5C299.96 350.54 299.6 350.57 299.24 350.57C298.78 350.57 298.33 350.52 297.89 350.41C297.52 350.31 297.18 350.12 296.91 349.84C296.61 349.54 296.4 349.17 296.28 348.77C296.13 348.21 296.06 347.64 296.07 347.06C296.07 346.47 296.07 343.5 296.07 338.16L293.71 338.16L293.71 336.34L296.08 336.34L296.18 333.18L298.45 332.13L298.45 336.34L301.6 336.34L301.34 338.17L298.44 338.17C298.44 343.56 298.44 346.55 298.44 347.15C298.44 347.78 298.55 348.15 298.76 348.32C299.06 348.51 299.41 348.6 299.76 348.57C300 348.57 300.25 348.55 300.48 348.51C300.75 348.46 301.01 348.41 301.26 348.34C301.54 348.27 301.83 348.19 302.13 348.1C302.13 348.5 302.14 349.7 302.14 350.1Z" id="a1QBzhdbhW"></path><path d="M315.14 347.21C314.86 348.04 314.39 348.79 313.76 349.4C313.24 349.87 312.6 350.2 311.91 350.35C311.27 350.5 310.62 350.57 309.96 350.57C309.31 350.56 308.65 350.48 308.01 350.33C307.32 350.16 306.69 349.82 306.17 349.35C305.54 348.74 305.06 347.99 304.79 347.16C304.38 345.92 304.2 344.62 304.24 343.32C304.2 342.04 304.38 340.76 304.79 339.54C305.07 338.71 305.54 337.96 306.17 337.34C306.69 336.85 307.33 336.49 308.03 336.31C308.66 336.15 309.31 336.07 309.96 336.07C310.61 336.07 311.26 336.15 311.9 336.29C312.61 336.44 313.26 336.78 313.79 337.28C314.42 337.89 314.89 338.64 315.17 339.48C315.56 340.72 315.74 342.02 315.68 343.32C315.73 344.64 315.54 345.95 315.14 347.21ZM312.99 340.3C312.85 339.7 312.57 339.15 312.17 338.68C311.89 338.36 311.51 338.15 311.1 338.05C310.35 337.87 309.57 337.87 308.83 338.05C308.4 338.16 308.03 338.4 307.75 338.73C307.36 339.21 307.08 339.77 306.94 340.37C306.69 341.35 306.58 342.35 306.61 343.36C306.58 344.36 306.7 345.37 306.97 346.34C307.14 346.94 307.44 347.49 307.84 347.96C308.13 348.29 308.51 348.53 308.93 348.63C309.27 348.72 309.62 348.76 309.96 348.77C310.31 348.76 310.65 348.71 310.99 348.62C311.41 348.5 311.79 348.26 312.08 347.92C312.48 347.45 312.78 346.9 312.95 346.3C313.22 345.34 313.35 344.34 313.31 343.34C313.34 342.31 313.23 341.29 312.99 340.3Z" id="b2W3gdeJfe"></path><path d="M328.06 350.3L328.06 331.86L337.02 331.86L337.02 334.07L330.44 334.07L330.44 339.23L336.49 339.23L336.49 341.29L330.44 341.29L330.44 348.08L337.02 348.08L337.02 350.3L328.06 350.3Z" id="cxP9SkbTH"></path><path d="M349.4 350.3C349.4 344.2 349.4 340.81 349.4 340.13C349.42 339.76 349.36 339.39 349.21 339.04C349.09 338.8 348.91 338.6 348.68 338.47C348.45 338.35 348.21 338.27 347.95 338.25C347.69 338.25 347.43 338.21 347.16 338.21C346.68 338.21 346.2 338.29 345.74 338.44C345.32 338.57 344.92 338.73 344.53 338.92C344.11 339.11 343.72 339.34 343.34 339.61C343.34 340.32 343.34 343.9 343.34 350.33L340.97 350.33L340.97 336.34L342.74 336.34C343.05 337.37 343.23 337.94 343.26 338.05C343.69 337.7 344.14 337.37 344.61 337.08C345.06 336.81 345.54 336.58 346.03 336.39C346.58 336.18 347.17 336.07 347.77 336.08C348.31 336.07 348.85 336.14 349.38 336.27C349.85 336.39 350.28 336.62 350.64 336.95C351.01 337.3 351.3 337.73 351.47 338.21C351.69 338.86 351.79 339.54 351.77 340.23C351.77 340.9 351.77 344.26 351.77 350.32L349.4 350.3Z" id="a47cMPXIEj"></path><path d="M365.66 350.3C365.48 349.4 365.39 348.9 365.37 348.8C365.21 348.98 365.04 349.15 364.86 349.31C364.61 349.54 364.34 349.73 364.05 349.89C363.7 350.1 363.33 350.26 362.95 350.37C362.48 350.51 362 350.57 361.52 350.57C361.16 350.57 360.8 350.53 360.44 350.47C360.04 350.41 359.66 350.28 359.3 350.1C358.9 349.89 358.53 349.62 358.2 349.31C357.81 348.94 357.5 348.5 357.27 348.01C356.97 347.38 356.76 346.73 356.63 346.05C356.46 345.15 356.38 344.24 356.39 343.32C356.34 342.01 356.55 340.69 357.03 339.46C357.36 338.63 357.88 337.88 358.55 337.28C359.09 336.8 359.74 336.47 360.44 336.3C360.98 336.17 361.53 336.09 362.08 336.08C362.47 336.07 362.86 336.12 363.24 336.24C363.54 336.33 363.84 336.45 364.12 336.6C364.34 336.72 364.56 336.86 364.75 337.02C364.91 337.16 365.03 337.28 365.12 337.37C365.12 336.96 365.12 334.95 365.12 331.33L367.49 331.33L367.49 350.3L365.66 350.3ZM365.08 339.08C364.99 339.01 364.86 338.92 364.69 338.8C364.48 338.68 364.27 338.56 364.06 338.46C363.8 338.34 363.53 338.24 363.26 338.17C362.95 338.09 362.63 338.05 362.31 338.05C361.88 338.05 361.46 338.11 361.05 338.22C360.61 338.35 360.21 338.6 359.9 338.95C359.51 339.41 359.22 339.96 359.06 340.54C358.81 341.45 358.7 342.39 358.73 343.32C358.7 344.3 358.8 345.27 359.04 346.22C359.18 346.8 359.44 347.35 359.83 347.81C360.1 348.14 360.47 348.38 360.89 348.49C361.26 348.57 361.64 348.62 362.03 348.62C362.36 348.62 362.69 348.57 363.01 348.48C363.32 348.39 363.61 348.27 363.89 348.12C364.14 347.99 364.37 347.84 364.59 347.68C364.79 347.54 364.95 347.42 365.05 347.33C365.06 345.68 365.07 340.73 365.08 339.08Z" id="b15NOqlra3"></path><path d="M138.73 289.69L123.05 289.69L101.02 311.98L78.86 289.69L71.42 289.71L64.24 289.69L4.1 350.3L19.99 350.3L71.59 298.27L93.05 319.96L62.93 350.3L78.6 350.3L100.92 327.89L123.13 350.3L138.93 350.3L108.83 319.89L108.83 319.89L138.73 289.69Z" id="dHK1KRvia"></path></defs><g><g><use xlink:href="#c2XaQIaw6" opacity="1" fill="#aaaaaa" fill-opacity="1"></use><g><use xlink:href="#c2XaQIaw6" opacity="1" fill-opacity="0" stroke="#000000" stroke-width="1" stroke-opacity="0"></use></g></g><g><use xlink:href="#e1tnR60GeG" opacity="1" fill="#aaaaaa" fill-opacity="1"></use><g><use xlink:href="#e1tnR60GeG" opacity="1" fill-opacity="0" stroke="#000000" stroke-width="1" stroke-opacity="0"></use></g></g><g><use xlink:href="#d6CEAroH0K" opacity="1" fill="#aaaaaa" fill-opacity="1"></use><g><use xlink:href="#d6CEAroH0K" opacity="1" fill-opacity="0" stroke="#000000" stroke-width="1" stroke-opacity="0"></use></g></g><g><use xlink:href="#cSH8CSlaz" opacity="1" fill="#aaaaaa" fill-opacity="1"></use><g><use xlink:href="#cSH8CSlaz" opacity="1" fill-opacity="0" stroke="#000000" stroke-width="1" stroke-opacity="0"></use></g></g><g><use xlink:href="#aIJxMRgMz" opacity="1" fill="#aaaaaa" fill-opacity="1"></use><g><use xlink:href="#aIJxMRgMz" opacity="1" fill-opacity="0" stroke="#000000" stroke-width="1" stroke-opacity="0"></use></g></g><g><use xlink:href="#a1RAq5WeZJ" opacity="1" fill="#aaaaaa" fill-opacity="1"></use><g><use xlink:href="#a1RAq5WeZJ" opacity="1" fill-opacity="0" stroke="#000000" stroke-width="1" stroke-opacity="0"></use></g></g><g><use xlink:href="#d1CzNWog" opacity="1" fill="#aaaaaa" fill-opacity="1"></use><g><use xlink:href="#d1CzNWog" opacity="1" fill-opacity="0" stroke="#000000" stroke-width="1" stroke-opacity="0"></use></g></g><g><use xlink:href="#e19oENm5kB" opacity="1" fill="#aaaaaa" fill-opacity="1"></use><g><use xlink:href="#e19oENm5kB" opacity="1" fill-opacity="0" stroke="#000000" stroke-width="1" stroke-opacity="0"></use></g></g><g><use xlink:href="#aQAcNFodd" opacity="1" fill="#aaaaaa" fill-opacity="1"></use><g><use xlink:href="#aQAcNFodd" opacity="1" fill-opacity="0" stroke="#000000" stroke-width="1" stroke-opacity="0"></use></g></g><g><use xlink:href="#afGlOgIkU" opacity="1" fill="#aaaaaa" fill-opacity="1"></use><g><use xlink:href="#afGlOgIkU" opacity="1" fill-opacity="0" stroke="#000000" stroke-width="1" stroke-opacity="0"></use></g></g><g><use xlink:href="#boS6ap7Hb" opacity="1" fill="#aaaaaa" fill-opacity="1"></use><g><use xlink:href="#boS6ap7Hb" opacity="1" fill-opacity="0" stroke="#000000" stroke-width="1" stroke-opacity="0"></use></g></g><g><use xlink:href="#e1cDpTLO" opacity="1" fill="#aaaaaa" fill-opacity="1"></use><g><use xlink:href="#e1cDpTLO" opacity="1" fill-opacity="0" stroke="#000000" stroke-width="1" stroke-opacity="0"></use></g></g><g><use xlink:href="#bc9UUmVLH" opacity="1" fill="#aaaaaa" fill-opacity="1"></use><g><use xlink:href="#bc9UUmVLH" opacity="1" fill-opacity="0" stroke="#000000" stroke-width="1" stroke-opacity="0"></use></g></g><g><use xlink:href="#cRgWDhQK" opacity="1" fill="#aaaaaa" fill-opacity="1"></use><g><use xlink:href="#cRgWDhQK" opacity="1" fill-opacity="0" stroke="#000000" stroke-width="1" stroke-opacity="0"></use></g></g><g><use xlink:href="#b115dTTaQ" opacity="1" fill="#aaaaaa" fill-opacity="1"></use><g><use xlink:href="#b115dTTaQ" opacity="1" fill-opacity="0" stroke="#000000" stroke-width="1" stroke-opacity="0"></use></g></g><g><use xlink:href="#a122kMt1Rp" opacity="1" fill="#aaaaaa" fill-opacity="1"></use><g><use xlink:href="#a122kMt1Rp" opacity="1" fill-opacity="0" stroke="#000000" stroke-width="1" stroke-opacity="0"></use></g></g><g><use xlink:href="#a1QBzhdbhW" opacity="1" fill="#aaaaaa" fill-opacity="1"></use><g><use xlink:href="#a1QBzhdbhW" opacity="1" fill-opacity="0" stroke="#000000" stroke-width="1" stroke-opacity="0"></use></g></g><g><use xlink:href="#b2W3gdeJfe" opacity="1" fill="#aaaaaa" fill-opacity="1"></use><g><use xlink:href="#b2W3gdeJfe" opacity="1" fill-opacity="0" stroke="#000000" stroke-width="1" stroke-opacity="0"></use></g></g><g><use xlink:href="#cxP9SkbTH" opacity="1" fill="#aaaaaa" fill-opacity="1"></use><g><use xlink:href="#cxP9SkbTH" opacity="1" fill-opacity="0" stroke="#000000" stroke-width="1" stroke-opacity="0"></use></g></g><g><use xlink:href="#a47cMPXIEj" opacity="1" fill="#aaaaaa" fill-opacity="1"></use><g><use xlink:href="#a47cMPXIEj" opacity="1" fill-opacity="0" stroke="#000000" stroke-width="1" stroke-opacity="0"></use></g></g><g><use xlink:href="#b15NOqlra3" opacity="1" fill="#aaaaaa" fill-opacity="1"></use><g><use xlink:href="#b15NOqlra3" opacity="1" fill-opacity="0" stroke="#000000" stroke-width="1" stroke-opacity="0"></use></g></g><g><use xlink:href="#dHK1KRvia" opacity="1" fill="#8bd124" fill-opacity="1"></use><g><use xlink:href="#dHK1KRvia" opacity="1" fill-opacity="0" stroke="#000000" stroke-width="1" stroke-opacity="0"></use></g></g></g></svg>