<svg version="1.1" xmlns="http://www.w3.org/2000/svg" viewBox="0 0 840 560" width="840" height="560">
  <!-- svg-source:excalidraw -->
  
  <defs>
    <style>
      @font-face {
        font-family: "Virgil";
        src: url("https://excalidraw.com/FG_Virgil.woff2");
      }
      @font-face {
        font-family: "Cascadia";
        src: url("https://excalidraw.com/Cascadia.woff2");
      }
    </style>
  </defs>
  <g transform="translate(70 210) rotate(0 40 10)"><path d="M0 0 C0 0, 0 0, 0 0 M0 0 C0 0, 0 0, 0 0 M0.3161935381917408 6.9584203407663034 C1.6186166206994055 4.799602348924038, 2.9266919165264254 1.5999401695655169, 5.478718542637772 0.9621261071262174 M0.015050169113104583 6.466851545919768 C1.122358078708996 4.828259114680541, 1.9695009801206453 3.793975126468956, 4.97752720374102 0.7550062220392042 M0.9350056299101221 11.436939984976828 C2.829930098349683 9.314532670124715, 6.567484580557336 6.937947338994452, 9.737606908333433 0.521683060665405 M-0.065834384309162 11.888613605916083 C2.654979887222942 9.784521510713441, 6.011745677072145 5.349041961460756, 11.061262018931043 0.2775267179205776 M-0.5007548658689718 20.22218651967185 C7.67149173679445 10.429382247545554, 10.784070688562045 4.146312817409735, 16.49173834128626 -0.2605624341475794 M-0.5015452458104352 18.06975636528867 C4.594257366658548 12.333512772607591, 10.379009603033502 5.245987141030504, 16.271299838557322 0.9524723372352293 M3.724697708654901 20.703157724737267 C7.795500722254971 18.560014994029068, 8.664649418240806 10.565865924166621, 20.77118296017673 -0.4301075139850852 M1.9943467150812353 20.930346930324177 C8.401882495571675 15.20734585341459, 13.91132425756449 8.364274544894476, 20.328973455631996 -0.32510139288608997 M8.497863571992365 22.33190132668503 C11.179305848137341 18.649853536289292, 16.337241027645902 12.926363467257529, 26.367362129178257 0.8739137979236187 M7.931422728946654 21.665966667144378 C13.331223898388348 16.384442655074288, 18.014346756041522 8.891143133619993, 26.643971527602883 1.0861851530161442 M11.552225793421897 22.209948409933464 C20.665010689537276 14.577045153084168, 27.982932533252793 6.4730454029945825, 31.43467906252185 0.08885968488298701 M13.768019380689296 22.78219939454259 C18.992923820630317 14.304092589285709, 25.85282482999759 8.043176054057762, 31.759613284325994 -1.0113196073786135 M18.792951471212486 23.418495478678107 C23.044681372215027 15.736653075839833, 29.96348689774736 8.83042529315698, 37.51892585847651 0.9053016510885676 M17.23571978420315 22.287731851089358 C24.551137510042903 14.201143806088616, 30.92497133011632 7.57434864763051, 36.96216933969532 -0.2886164354998151 M24.765068819595143 22.25427571622341 C32.34265758040486 12.973643271695163, 37.86518208346652 6.901502731487536, 41.30575573127322 1.7293478798448092 M24.05753066934423 22.68022495446413 C31.424667480728193 13.201082076276926, 39.053652578958584 4.484859422296111, 42.27933392356687 -0.677731913668012 M29.904994936838857 23.767235626764926 C32.466092875367444 15.354899431830628, 38.13514081384548 11.016809517373632, 47.872210779181 -0.7796801246527387 M29.449410150006525 22.233990443237456 C35.587128823178276 14.14652473955503, 43.649340556651545 5.2437484682726065, 47.98175264983463 0.9159581966873453 M32.28900803717464 21.22285839360711 C38.493695895668935 16.825636960037084, 45.432996738765674 9.308121350386925, 54.435194216430844 -0.2469241790996186 M34.11873995604604 22.212314235088794 C37.14689689420718 17.078070634332434, 41.473416939056094 12.156609594233206, 52.581494748354615 -0.1739476867542855 M40.88477521887148 23.639840520945498 C45.1252131946693 11.846272593645969, 53.67645145122785 3.967727505981493, 59.60299814129175 -1.044312779300288 M39.76585320135678 22.155133068588682 C45.86164225035488 15.55473045623414, 52.14120674755138 8.19556732692497, 58.33358083302082 0.9127996745776379 M43.299824696160385 23.252415192084555 C52.324269110110386 15.737359915181045, 58.916185113139434 5.574557444868953, 63.123775767994715 1.1717622580497036 M45.08250661579473 21.091357861416583 C51.84560768533948 14.291645249152996, 56.76633042141794 6.91969769625023, 63.23445513368924 -0.22457630163743403 M51.03307356731035 23.048028911219816 C55.710839998997535 17.11227784599251, 62.765543814540365 7.130744839083908, 67.13706919480875 -1.001877562854098 M49.2534083132539 22.82655035214303 C53.180175749099426 17.210226028962786, 58.78033952584028 13.525452238919675, 68.52351326425388 0.03979862317104477 M55.22330004655238 20.229664861655756 C61.66413011581122 13.256684037857468, 69.3200591035792 2.5542187571840387, 75.92228163596484 0.7471259412927793 M55.95469002359029 21.1552464584475 C61.008068588377085 14.434663317526056, 67.59998820443603 7.484660869444683, 74.68157445457074 0.570772866682546 M59.900671232155474 21.753519547587892 C63.187481554430235 17.208809666703374, 71.03385921205583 9.249451816865232, 81.15020518973199 1.9843442746858528 M60.8554348606979 21.14863291890051 C64.85581770884647 16.489339313097584, 69.4970627126046 10.27001521398574, 78.93240931853381 0.7598456674675873 M65.73521533835063 19.7913261523207 C70.98998041113188 17.326763084292406, 75.41177664108707 12.51398892136506, 83.00725695437919 4.009723941520683 M65.61614955443272 22.366870651181536 C69.79078389650685 15.926517083468923, 75.19830227069 10.864416790756732, 82.61697597003709 2.756328764096729 M71.25971674955254 23.13830071851187 C71.97656539127689 17.334747389236938, 75.80237963482321 16.453895492108444, 81.49749273611859 6.7811845912591835 M71.35146522930627 22.129166910942132 C75.06255518631265 16.815817295850447, 79.16477057770457 12.83987511106959, 82.62063963143781 8.004968545492114 M76.69741153864406 21.46272141419398 C78.19337306608448 19.936242054042957, 79.60890434144177 17.265534354180094, 83.28375024603842 14.99758421848755 M76.72503828143917 21.233222876936665 C77.82132196835335 19.91262895137307, 79.37240428500708 18.640166400030868, 82.29579148287117 14.440127371579816" stroke="#15aabf" stroke-width="0.5" fill="none"></path><path d="M0.7880013138055801 1.6114187091588974 C26.502157881855968 -0.16599112451076503, 49.57692541182042 -0.48467045724391933, 79.1875589042902 -1.3441310077905655 M0.8517463132739067 0.6462880447506905 C30.778699927031994 0.40341107994318004, 60.15462052077055 -0.23966700881719594, 80.5152144357562 -0.08397161215543747 M78.52031876146793 -1.6930651813745494 C77.88520344942808 9.16703078150749, 81.23169192522764 14.72486539185047, 79.28585840761662 19.67119406163692 M80.86485623568296 -0.5246473476290702 C80.63609274923802 5.249396227300167, 80.61139663755894 13.351938642561436, 79.66601204127073 20.06724417954683 M80.70199228823185 21.869745239615437 C54.92213423550129 19.920866277813907, 33.55464495718479 19.692183282971378, 1.8984553962945938 20.34043453633785 M80.99056839197874 19.726849205791947 C52.275998525321484 21.00931652933359, 22.601704232394695 21.0397461310029, 0.393034927546978 20.18898762017488 M0.4253070503473282 21.996627315878865 C-0.8526787385344503 11.098695278167721, -0.431635819375515 4.018619075417517, -0.24173997342586517 -1.030257239937782 M0.3350839540362358 20.83754528313875 C-0.822354608774185 14.148190371692177, -0.9661150515079496 6.235088206827637, -0.6428282335400579 0.038338787853717804" stroke="#999" stroke-width="1" fill="none"></path></g><g transform="translate(150 210) rotate(0 60 10)"><path d="M0 0 C0 0, 0 0, 0 0 M0 0 C0 0, 0 0, 0 0 M0.29917949962896595 6.473764877070777 C1.668592597238332 4.263022145430565, 1.9985098012178244 3.4734835721315624, 5.589034139695114 -0.39368833789255075 M-0.19238929521756865 6.756468839992873 C1.4626738146672325 4.1272495203169, 3.7223770474898776 1.6318667245233498, 5.381914254608101 0.12233862689111769 M-0.47077308808456797 12.292443663298666 C4.1417735723197895 9.030438450082046, 8.513847799158007 2.2521068970339684, 11.186267735016477 -0.7715521220967411 M-0.019099467145313076 11.829800022065221 C3.508398288925626 9.598164980272164, 4.702768927896212 6.600180965657358, 10.94211139227165 0.7576272423460844 M1.655232605473115 19.893415673543387 C3.2503449908259 11.942430076844097, 8.376115174860802 9.72214812013077, 15.030930272772391 1.0731623328221014 M-0.4971975489100675 17.937433442939692 C5.3492823714389885 12.151181607459039, 9.864510437764126 6.516360003237395, 16.2439650441552 -0.5253882476198504 M1.120037406254312 23.145700545906166 C8.153713196908143 14.661453804474299, 9.316350923636346 10.940811913165582, 20.89906183471706 0.4110454222350839 M1.3472266118412222 21.795843431650738 C8.225906916758444 14.86858632651284, 13.966295873697163 8.29602746202814, 21.004067955816055 -0.838483008167195 M7.375689040770975 21.84510473897942 C13.853717249770906 16.539105817881072, 18.313662960901382 9.978809954098843, 26.82999117919466 0.440787139722401 M6.709754381230322 22.513154052107414 C14.52753468114706 13.88704274145332, 20.130714053109788 7.791258511537759, 27.042262534287186 0.9913688110199512 M13.291412765801581 22.504292149681465 C19.109163827620787 16.733720549268394, 24.470152266956088 9.105657949175376, 32.082613707936204 0.5421284810885076 M13.863663750410709 21.63157021685304 C18.725635121812537 15.011865785508643, 25.809902537783692 7.508867960730452, 30.982434415674604 -0.2124882786289568 M19.12686786711512 21.896842094707846 C23.993800083067228 16.051204282712273, 29.651728108841535 8.346159088127411, 37.525963706710684 0.6292737630289515 M17.99610423952637 22.805774758208155 C22.79821187558605 16.41638875950514, 29.072145557041615 8.708896919563038, 36.3320456201223 1.0093160552066287 M24.0003247464426 23.293120569863014 C27.189577033562948 16.626273439860483, 33.61529669961833 10.555636711608631, 44.3876865772491 1.6132139813481814 M24.42627398468332 22.288799687602214 C28.978710127495255 16.033322964418844, 34.31155526496381 8.592938946884248, 41.98060678373628 -0.5354986760438436 M30.140192689553015 20.997956891842517 C31.867669080306847 16.451969715449437, 37.683421801794935 12.081680522527266, 46.50556660532045 1.9394034527417467 M28.606947506025545 21.719702837355765 C33.348622100593104 17.221847825069194, 37.26760561827118 12.329736837143892, 48.20120492666054 0.09681285994017585 M33.63349209817737 20.812967056450812 C42.99270985745122 13.89965901763169, 49.20620508404576 6.057585559234347, 53.07599919265574 -1.9499168269858949 M34.622947939659056 20.835891218898265 C40.85671626472118 13.415861323182341, 47.276432341287936 5.684624151179561, 53.148975685001076 0.6983451745881446 M40.67738225808466 20.57423038038344 C41.74036835375073 16.515638666767675, 46.746791486660754 13.21776829659206, 56.90551862502397 0.921957458860799 M39.19267480572785 22.260797664550253 C44.323662542142955 17.014048289843714, 48.67667467890452 12.154677998145052, 58.8626310789019 0.6972186002206051 M46.32763357100589 22.61461285944486 C52.5977348201269 15.673750538427331, 56.19596568621512 7.173348603623273, 65.15927030415614 0.5285173060862789 M44.16657624033792 22.21620418574119 C49.167578838235244 15.569379814953855, 53.59794689233794 10.87551615093714, 63.762931744469 -0.1300973517329922 M50.75015532271006 22.30144381033061 C58.52471082433625 15.346398890002499, 62.26033244887864 4.220500994737165, 67.61253851582124 -1.6222829686139093 M50.52867676363327 21.309918614791613 C53.9229083977732 17.911755723007158, 59.27064742645657 11.743655142034315, 68.65421470184639 1.1288926510478987 M53.96946791492816 20.498839228845164 C62.63276820489087 12.653337344736222, 67.54500140515151 7.26684155899059, 75.39921866175028 -0.025702369435293804 M54.895049511719904 21.248097963130995 C59.74539686304192 16.32470929645803, 64.37329146038094 10.819774954002193, 75.22286558714005 -0.7649668800072504 M60.1202306334292 20.105378431684038 C66.66294118394461 16.755704906441935, 69.79950840655128 10.74427287708387, 81.26334502771226 -0.642536579682357 M59.51534400474182 21.622925063079855 C67.32409228246192 13.44827025426309, 73.5662969360186 5.967404226343264, 80.038846420494 -0.41480561257792203 M64.19571387994418 22.51642741465171 C71.88794725437208 16.627791112291753, 77.19815039278237 9.644926945841531, 86.30756301543818 -0.4367946035506236 M66.77125837880502 20.624931926067667 C71.79834188450525 14.439676117635305, 78.22562498374472 8.126769414850633, 85.05416783801422 -1.0754040352346408 M72.2993269402421 20.161815494443708 C74.9033739622424 14.995185942051599, 82.8991014180106 7.4781239897240575, 88.24465691069702 1.1619778756554382 M71.1780671540535 21.830676384414964 C76.20355622848831 15.225430216974361, 82.7308995656841 8.793412765677669, 89.60441685984472 0.13448318434312512 M76.39309021605395 20.968158666864504 C82.77887356778149 14.203973786797004, 86.57382129191605 11.403744201236117, 96.14602211521984 -1.2789781462597034 M75.88309346659325 20.915065449551214 C82.8321373842263 14.083442517428816, 89.83783693898505 7.090786499791818, 94.90722912209154 -1.0555494424151561 M82.54916299314874 20.896536248609635 C87.08602390331083 17.78476646437861, 90.81313041772236 11.06043852808453, 98.69319291477555 1.3420416473994905 M80.66723683656829 22.439031953796956 C88.8260844218619 15.12446313763028, 93.69777953370259 7.610192994724287, 100.0638166448986 0.7201184168110544 M85.69831567325747 20.404814235483556 C93.93118599647725 16.699212753429986, 97.73313902737225 10.453631544170612, 106.92631471109522 1.123528252437474 M86.44344540008461 20.561857908581644 C93.1420064786006 13.981248005750276, 100.24963740758798 6.45845710364236, 106.55744006437195 -0.8245437265487894 M93.88145754214914 20.985321944181806 C96.62215396578502 15.658662539417335, 100.4098263208602 12.292994497916492, 110.49567178994782 1.6984359855497857 M93.25824367728622 21.828851146225816 C99.26826513548102 13.95359203593594, 107.36395901091348 5.76146599480057, 112.25493640065558 -0.8395405401741485 M98.34204997256424 22.38188495073163 C102.89191242658998 15.757666378145291, 111.89643895675216 4.758175951587113, 115.75410052407386 -0.5487845772363258 M98.1341457752886 22.63837825838172 C101.7349859361837 16.162721600657882, 107.16958635704562 10.931699417488192, 117.249132260865 0.1281820675872254 M101.05792933724328 23.353953831160233 C111.36054393724399 12.544519882341506, 116.97101878483899 3.3985141654544897, 120.63275325722334 1.036651720329111 M102.35147830120727 22.255993336701557 C106.8658662601745 16.881571656368948, 111.48429348137766 11.41318068128869, 120.4846077231252 -0.0964247313896962 M106.27312992195525 22.440732902163177 C112.3531739162885 15.660700452139174, 117.94187231008287 11.23056227280442, 119.54868510122219 7.162831676278287 M108.7302032751862 21.828566713505893 C112.33650613348098 17.269556109083965, 116.51195149071522 11.512062608038127, 120.4152831336371 6.716454376552278 M114.16313095854936 22.64002679417893 C114.69280162445405 18.53724947741493, 116.57431792640023 17.00759654493216, 121.34183381708608 12.444535448296438 M113.49235148148951 21.843889638586486 C115.43422945614785 19.287017233189115, 116.37964311004833 18.04348246920185, 120.95157291950927 12.960748518152604" stroke="#4c6ef5" stroke-width="0.5" fill="none"></path><path d="M1.6114187091588974 0.7925098091363907 C32.8741741925478 -2.3151715219020845, 66.18867222964764 -1.2852418839931488, 118.65586899220943 1.4521229416131973 M0.6462880447506905 0.9702081605792046 C33.477206982672215 -0.48445858806371667, 65.39321655780077 -0.5068811401724813, 119.91602838784456 0.6063096448779106 M118.30693481862545 -1.9493701308965679 C121.85570734292268 5.742854148149489, 120.20092266350984 7.97733001410961, 119.67119406163692 20.208549275994297 M119.47535265237093 0.7478825971484182 C119.23309846818447 5.605288006365299, 121.12709160745143 9.430215083062649, 120.06724417954683 19.94379090517759 M121.86974523961544 18.47246147692203 C75.41854657232761 21.07649481296539, 30.42045764625071 22.3196507692337, 0.3404345363378525 21.115503564476963 M119.72684920579195 20.738012783229347 C93.77969405800104 20.714414818584917, 66.97475845366716 21.581716997921465, 0.1889876201748848 20.62141346186399 M1.9966273158788677 19.197164788842198 C-1.6553877964615817 13.119772434234616, -1.4926370754837985 6.761389479041096, -1.030257239937782 0.4527709633111954 M0.8375452831387518 19.148362390697 C0.5206798613071439 13.297431953251358, -0.9396513402462003 7.942831777036188, 0.038338787853717804 0.6516284868121145" stroke="#999" stroke-width="1" fill="none"></path></g><g transform="translate(270 210) rotate(0 90 10)"><path d="M0 0 C0 0, 0 0, 0 0 M0 0 C0 0, 0 0, 0 0 M-0.18547596406655997 6.869876830329291 C0.9513436092705068 3.780289510270776, 3.515065893614362 3.1341177639103486, 4.233219694676346 1.0872361611423305 M0.09722799885553618 6.072871042837493 C1.4192267075161817 4.435253115121442, 2.8805174535185 3.11026516746982, 4.749246659460014 0.6248532336053663 M0.3847305902372704 12.310499936759054 C5.597196155585895 8.207227078222637, 7.301245776660988 3.29439952122195, 9.893032552254331 -0.9270592336461185 M-0.07791305099617374 12.839293957173407 C3.67674682930884 8.000616548218066, 6.661131844088351 5.393824390097114, 11.422211916697156 -0.30995821402522317 M1.3264617593446513 17.795902206469947 C4.305180913551485 11.565210017205601, 13.010194697870315 3.642884540359825, 16.364655039742072 1.3013887262833288 M-0.6295204712590436 18.577648735512668 C5.9663855907085095 10.69284947275207, 12.70488515104708 5.191015223970679, 14.76610445930012 -0.33367978716967794 M3.5625802274232115 23.130221189855675 C4.555561922625765 14.912030449435697, 10.333465207537735 11.4955251316535, 21.74021477093723 -0.2955702939838645 M2.212723113167783 22.17745896607552 C6.106303779065355 17.422483979009204, 10.347713141779671 11.386285902466804, 20.49068634053495 -0.28243424238865344 M6.888892453065363 23.687019601373752 C14.924668758001898 14.47760150481725, 21.724405885400834 6.039673461043648, 26.396864520993443 0.9838691087451519 M7.556941766193358 23.095413602798065 C11.75440505520795 16.07941564993386, 18.502505841845633 10.370484210548904, 26.947446192290993 0.11172431279092443 M13.585756505549583 22.770953525442497 C20.668263221114024 15.062368813148566, 25.874506908524978 6.6097069813397535, 32.535882504141725 0.2801901177748327 M12.713034572721156 21.61053396447362 C19.100587436104004 15.475434554414804, 24.630693734158225 6.772006961573824, 31.78126574442426 0.17458179604851054 M17.60521448314486 22.166344466257453 C25.651290075115725 13.723515488613705, 31.851424071288463 7.185191330814227, 37.24993581865107 0.48708923730072584 M18.51414714664517 21.254944289672732 C25.468517922056073 14.087876935879484, 31.087164118157474 6.597363140925175, 37.629978110828745 -0.4914250540453473 M25.039169600082204 21.37305060712307 C30.851078154552567 14.759976482306532, 37.27736963593199 6.155440661699043, 44.27155267875247 -0.2862003493727201 M24.034848717821404 21.799742996074848 C31.03781450140663 13.484704001806952, 36.87197632268075 5.223752254772744, 42.122840021360446 -0.7948853198112005 M27.370913954630606 21.144143452234896 C34.573556516015636 14.704900574593967, 41.97225687126656 5.67048629556445, 49.22465018271494 -1.1772321380499555 M28.092659900143854 22.542679322250518 C33.818617092565674 16.059964399001448, 39.17800425993606 10.776020142330637, 47.38205958991337 1.1322627373215006 M33.223600761021075 22.94823118489739 C38.911141429550916 17.1485289395097, 43.643657800282185 12.44514638543609, 51.37300654476947 0.8919770545734771 M33.24652492346853 21.5204766858792 C37.48060900782579 16.61207295931458, 41.40331423755262 12.591799927979814, 54.02126854634351 -0.8529449649677865 M37.611772117522605 20.507135309306094 C46.201826453986996 12.21179886138189, 55.577964031674824 3.2138207301460895, 58.87178886318506 -1.2473762673068798 M39.29833940168942 22.79650932553143 C43.4583246315404 17.695560266582007, 48.024401880559815 12.592070490481369, 58.647050004544866 0.38317831189148066 M45.689831238366196 23.258214008765464 C49.86717745421524 15.906605097299089, 52.46417122002141 13.467783322151059, 64.51602535219271 -1.5485589203865757 M45.291422564662525 21.673125658886676 C49.54720171294098 15.095525243373233, 55.765316036150054 8.397102386710895, 63.85741069437344 0.4632934855787525 M50.00357022182085 23.892038787471037 C57.226136273878126 13.458932375525052, 60.29631954426188 6.609034725457475, 66.99213311006143 -1.2116244004700647 M49.012045026281854 21.979324924515467 C57.868247554488406 14.522182403271712, 63.940538942120725 5.285182875630991, 69.74330872972324 0.786712294664575 M54.23864228211757 21.81471782872729 C58.62049858151237 15.03363763716711, 65.45904915601231 12.938693329102495, 74.62639035102221 -1.221089524252875 M54.9879010164034 21.28308054009728 C61.713165078573304 14.129428332140595, 67.87318390552015 8.352675736541565, 73.88712584045025 -0.25827934317157997 M58.47208951752535 22.685572636729738 C67.93162747653506 12.95375637561856, 74.7226658550549 9.46165269669107, 78.63646417334405 1.191742212460511 M59.989636148921164 22.179016744202634 C64.81601383624599 15.787959480594719, 70.35001265961311 10.674001267952198, 78.86419514044849 -0.006744689359194922 M66.92081514227519 21.879461394782858 C71.86237991226196 16.67705109068777, 75.70571458710617 12.617476771169208, 84.87988279125796 0.011103992974568655 M65.02931965369115 21.500731954511004 C72.20453592312586 14.361668447373024, 79.24069052359094 6.596841473231157, 84.24127335957394 -0.30477282621879453 M69.1931112546361 20.02445560708218 C74.5402456496926 17.625207376658814, 77.54104336267092 10.826893668855538, 91.10556330303291 -0.025557678515170323 M70.86197214460735 21.60847540959292 C76.74319521410891 15.537336599017195, 82.80875488107966 7.590641582560643, 90.0780686117206 -0.221802015179847 M76.03713106883906 22.464163456932177 C79.8311853704623 15.792662825695729, 87.59085791732396 11.345709072321426, 94.70228392289997 0.03474038129576229 M75.98403785152577 21.60147052712785 C80.70692520409052 17.4061114871163, 85.27386173724338 10.337634111289741, 94.92571262674451 -0.8382963385628841 M80.59241668315309 22.795406448528382 C89.5496469782867 14.078668034026652, 94.88880876935386 4.578058334298506, 101.95021174912804 0.8981946766029054 M82.13491238834041 22.605591545686337 C87.94065282817186 14.676912376322383, 93.54438115093619 8.587737724934524, 101.32828851853961 0.04193094220263305 M86.13837131180918 22.330542765175252 C93.18783081634876 15.764168809471812, 97.68590008891454 12.66642647880629, 107.7693749959482 0.48653839071071303 M86.29541498490727 20.98568688294783 C93.5318713485996 14.427570908942414, 99.85275699729775 7.305822371338698, 105.82130301696193 -0.8959592552038416 M91.34578705307634 21.635143911068326 C97.34627544132297 13.71511915327388, 105.33371570082845 7.166890019537622, 112.97119076162942 1.474718027814724 M92.18931625512035 21.633255777482873 C96.64456980696662 17.661034318297286, 100.77279276818953 13.114774700432971, 110.43321423590548 0.809844807788231 M97.36925809219505 20.74502764973485 C105.28940427248982 15.258480676415703, 108.82575517659588 7.3021475615284785, 115.3508782314122 -0.4920736485578132 M97.62575139984514 21.93348122719371 C103.05960627065224 15.066180557519665, 109.74852353501547 8.565859834141191, 116.02784487623575 1.364838629081099 M104.37900361440583 22.930386744702027 C107.03001717153732 15.611987680336735, 111.33456564297553 9.8632137184295, 122.21928159053704 -1.0342688748797002 M103.28104311994716 21.27935872998254 C109.036451267462 14.677455423692168, 114.69817678643768 7.703745219255538, 121.08620513881823 0.23233020657696102 M108.09269071797766 22.45991770016542 C112.27343804837264 17.002433760732558, 118.77767540770559 7.063527944613053, 126.93469293727293 0.7262038530446304 M107.48052452932038 22.585825024419933 C114.51354021474262 14.531978517261223, 120.42359304645187 5.723890966790346, 126.48831563754692 -0.3524312211536156 M114.86784761714158 20.817853699429477 C117.93465245525672 13.372007976525126, 125.3462328372579 6.735744063035183, 131.9952654858509 -1.6170472814803674 M113.54095235782084 22.256791028185333 C120.2654287671583 12.2131100383228, 129.11988336152922 3.666872246420695, 132.85562060227784 0.5847777635688232 M118.95339141016655 22.24164124668974 C123.90439248251064 15.37715418527089, 130.30830437688846 6.934465133075033, 138.29054133453994 1.782799225740817 M119.27203471934251 21.47281847984928 C124.35940670359915 13.743054342279997, 133.01539953576065 6.197845048540346, 138.052515646905 0.044831399314787745 M122.23810031128357 21.18426352525067 C127.51942344834296 15.302481080437243, 134.10094726037428 11.58597571611889, 144.84992369757103 0.4881015580127013 M124.9749033437414 21.403443297091243 C130.74535037078954 14.10462509263126, 137.33980055455552 7.392489108742453, 143.18482000128435 0.2675781037637961 M127.50214141876165 21.85191703930782 C134.34473339744144 14.336309604652676, 138.5393273966594 8.122295951825736, 150.09420467321317 -0.6855687804692252 M128.9436413449115 22.494852218481768 C135.42144635270353 16.309909407020005, 139.2577054978579 9.824480956145733, 148.10130427930991 0.01951711548633739 M134.1655429468318 21.666334972165615 C143.76835667774205 11.484582986983243, 150.03332896653336 3.1309138237113388, 155.58403747569741 1.79289639359952 M135.46375545270882 21.68220616170028 C141.51599161273018 12.881117787029334, 149.13385003054734 4.933206049589629, 153.39216271083774 -0.19387814783810597 M139.53972199376304 22.80246382801964 C145.9846209200847 15.601045286766954, 150.38744505405128 9.498101496582207, 159.27146420329268 1.7078185844144684 M140.31370378102739 21.677316865317366 C146.0314902094454 16.05439363163044, 150.4348276257216 8.001008323943392, 157.89054090976174 1.1595165523609978 M146.57595677378632 23.65078679017431 C154.7971403891439 12.798286512766666, 162.0564112262438 6.291889272243619, 163.24838807023002 -1.4409440247199115 M144.76336805972315 22.18097024701244 C153.27155979829848 13.273457853066812, 160.5599218871984 5.02443475122244, 164.67100810593797 -0.14920036623688304 M149.11691438517067 22.35500036282521 C153.83162474545216 14.839243374684514, 161.34380373803506 8.530597526366089, 170.9981011747784 1.099680070391912 M151.07558140269015 21.17060304535609 C157.73186968642 13.003308138920978, 165.4742620073994 4.433321331392008, 168.5510849132604 1.1777203349387833 M155.64512304214708 20.274337729276766 C161.62976261382377 14.557840416882057, 171.3639904338805 5.94345998288442, 175.14375673116888 -1.2017009469455786 M156.50460053978435 22.11262617802774 C161.72190496616332 14.981693370105305, 166.9293703535621 9.097183020882172, 174.08971556158508 -0.8229979264325209 M162.53449984298453 21.521245393724527 C167.80781420335 15.008320572001221, 173.38137044251198 9.874301018262768, 178.6998968376704 1.3767344274631057 M160.79763358489976 21.250101383597936 C167.96222189184053 15.38840525436169, 173.63348945642122 7.135998703071989, 179.08879566480596 -0.08798091178030631 M165.79882300191406 20.42370653947296 C171.2829277369001 17.265111477127977, 171.80893044840096 14.283463072921283, 180.91639344759943 5.064730598927426 M166.1933122678924 20.81506457974615 C171.63964155011757 17.069329476127812, 174.6071592697919 11.054236655421537, 180.6871131918645 7.477506018579888 M170.80406496849176 21.39802965160286 C172.57150426301124 20.712628929264834, 175.9473421500353 16.410237574554955, 181.0772119849939 10.936389473597872 M171.1810390240353 22.212664793914318 C174.1910153559609 19.352857580198084, 176.76025142303183 15.351066349283272, 179.99294704832326 11.683631444122065 M177.38490419823427 21.44774500880688 C178.07103854582544 20.69000378052249, 178.96861300480185 19.482587835532843, 180.27756501588695 18.757681998432144 M177.28440914142627 21.650857830087837 C177.70686010713976 21.01765866374021, 178.33260888880474 20.21512012072739, 180.06046119633788 18.539208544612393" stroke="#fab005" stroke-width="0.5" fill="none"></path><path d="M0.7925098091363907 -0.7590031772851944 C38.814858078956604 -2.5279593482613567, 80.50201652944088 -2.7944078460335735, 181.4521229416132 -0.5734853893518448 M0.9702081605792046 0.9181193187832832 C66.11857236176729 -0.8882772505283356, 131.67708518356085 -1.2472900927066803, 180.6063096448779 -0.827132098376751 M178.05062986910343 1.9544114917516704 C181.24915022104977 5.312585324048995, 179.1378902837634 9.697111085057257, 180.2085492759943 18.882101520895954 M180.74788259714842 -0.9591530486941335 C180.89615773260593 8.857355259358881, 179.83898328840732 15.912274517118929, 179.9437909051776 20.73078382760286 M178.47246147692204 20.18795250356197 C132.66473951935768 21.642040224373336, 85.91733555495739 22.023205251991744, 1.1155035644769669 18.472560867667195 M180.73801278322935 20.615059264004227 C116.65494427829981 20.15381743609905, 54.65145798772572 19.697316190600393, 0.6214134618639946 20.249217636883255 M-0.8028352111577985 18.34152220189571 C-0.424322997033596 12.535172939300534, -0.28427067846059795 7.031542792916294, 0.4527709633111954 -0.2928300052881241 M-0.8516376093029974 20.600961335003372 C-1.0624148428440092 12.33781539648771, -0.7098450243473051 6.432709313929077, 0.6516284868121145 0.7586869075894354" stroke="#999" stroke-width="1" fill="none"></path></g><g transform="translate(450 210) rotate(0 40 10)"><path d="M0 0 C0 0, 0 0, 0 0 M0 0 C0 0, 0 0, 0 0 M0.21063598919195436 5.989972572078101 C0.9834843326213745 4.63724110398175, 4.205278957986172 1.144481001074035, 5.714144193711228 0.39372907391164835 M-0.5863697982998439 6.523604555477492 C1.5486786630901168 4.112564183597481, 3.997719814503048 1.655615693286968, 5.251761266174263 0.7074339371022993 M0.4027868636976586 13.504876143157064 C4.651751409395154 6.904092445708463, 8.085203567642232 2.8317404926078553, 9.737525440704953 -0.2108408336445926 M0.9315808841120112 12.521035564362585 C2.4734216452951125 9.177461871147555, 6.244143849676856 6.216149653943139, 10.35462646032585 0.6724772865965727 M-0.7710517077287893 16.723333104421073 C4.442138419847528 14.102140473770461, 7.9848089722681745 8.87845213764297, 16.5928814332033 2.0176274931919744 M0.010694821313931513 18.410036525596553 C3.2368670353558517 14.413885032960145, 8.837270467135976 8.150820179693513, 14.957812919750292 -0.37458539689658377 M3.54710087137272 19.92622527658854 C7.503678730064898 13.005475082495538, 16.246000830663455 5.777731954864393, 21.03359905471828 -1.3428078988403556 M2.594338647592565 21.140921184717754 C8.287609692060668 14.85008866406355, 12.674274864295782 8.971371188915644, 21.04673510631349 0.7475386535912278 M8.730807315459696 22.75934223821648 C14.79417355936125 14.366748254887806, 21.631235666459837 6.4334974432814835, 26.939946490016194 0.09359580595164907 M8.139201316884009 21.346184991209586 C14.546086591229354 14.390860704041657, 22.24539850172018 6.574547469365449, 26.067801694061966 0.7921502994385303 M13.852417881310615 22.782222886223213 C18.25960062799669 16.12904562726935, 21.92881213095493 12.10039843412656, 32.27394414082805 0.2534546033724432 M12.691998320341739 22.169595357615368 C20.91151165832296 13.13792363895269, 26.59127989886783 4.616234297953778, 32.16833581910173 0.43415655207477855 M17.874716854694466 23.315321537304282 C23.759564468698578 15.212126473889608, 31.567159139633713 7.346985538247923, 37.10775129292284 1.0978478101175746 M16.963316678109745 23.11739761625564 C21.814673345742392 16.883944489393578, 26.34671841438672 12.333672067988623, 36.12923700157677 1.2344902438205203 M23.11909963734226 21.675879187264137 C32.12122950216337 12.43083464153031, 39.13913104481852 7.440399528621491, 42.37213834803157 1.084641421991492 M23.545792026294038 22.544186278559856 C29.886661772987303 13.606864039043863, 36.30827135103758 5.652438243065063, 41.86345337759309 0.35243338610520425 M27.517100515022985 21.715600152798327 C35.75516117919102 14.455639159397617, 41.42177459861877 7.684511895475044, 46.10801459192324 -0.2938352443102552 M28.915636385038606 22.440581676848563 C35.979598535174745 13.973053547259038, 44.24591557525227 4.689319689718598, 48.41750946729469 -0.66670618875062 M35.358864889467654 22.28297542971131 C38.148219612538256 18.527490811304673, 42.02686709229502 10.908221451331523, 54.21490042632884 -2.0484661929832093 M33.93111039044946 21.14555332255122 C39.21777760173625 14.75938834185245, 45.40682864460988 9.646315106762142, 52.469978406787575 0.820728530682505 M37.54467704644526 21.760959334698626 C45.361063681320346 15.176192547670329, 52.49720391333113 5.938740253531876, 56.70245513701738 -1.155672107331828 M39.834051062670596 22.134096547988364 C46.77892858889269 14.237252521902022, 53.72358046836601 6.553146391108223, 58.33300971621574 -0.6555796232748783 M46.3334323876868 22.529292863564734 C48.00338512358233 15.960177923083151, 54.60862293664665 12.37870546641232, 62.43894912571986 -0.09508699155166056 M44.74834403780801 20.729555864589457 C51.20712864648947 13.748282440267507, 57.52826174161758 7.088086609762083, 64.45080153168519 0.03240136080668066 M51.59416519896128 23.50218033300517 C55.17255158586043 12.405328512334549, 62.34856997198809 4.281387765524977, 67.40279167820528 1.6881184710528387 M49.68145133600571 22.891301604675036 C55.2259774204052 16.437566434785385, 59.01315676834559 12.160404132863746, 69.40112837333992 -0.6012706847522722 M55.55452088199969 20.59061273882441 C59.26248738520152 16.876699043859013, 67.63634272015479 9.191696591567581, 73.43100319620463 0.24556027628614174 M55.022883593369684 21.927053279674574 C61.77393086420031 14.17858333917432, 69.88786329297322 5.571123372901022, 74.39381337728592 0.05581125147773491 M61.05228372257105 23.240044397717973 C63.800084123877326 17.88825303801444, 72.78399668110816 9.324253472727538, 80.47074296548692 -0.33668225915623395 M60.545727830043944 21.28055622190859 C66.87448480413246 13.988526394268114, 74.45583498085577 6.2961176201262266, 79.27225606366721 -0.49791999818278043 M66.28384912240634 22.89271630549033 C70.98752150728424 16.730740423323066, 76.83546686658563 10.58276002366048, 82.70354527182113 3.543095181421272 M65.90511968213448 21.24390494280656 C70.47518091179876 17.065011604875846, 74.41828400636528 11.15730470846174, 82.38766845262776 1.853155898586742 M69.25037846303348 21.56987215742045 C74.9825934882115 16.494025989435208, 76.73269787668175 14.507748139423885, 82.71234907163934 8.711356513108433 M70.67599628529315 21.767770453687245 C75.48490282425688 17.193932414114425, 78.5995796636518 12.82679108223812, 82.53572916864113 7.892018886561812 M77.04471435545229 20.916991563961375 C78.26015121100114 20.25099701540942, 80.47886339146434 17.00384035627299, 82.70496525423764 14.267245002791693 M76.65650253704034 21.344305000901688 C79.02083646456381 19.20293912180181, 80.10574838215751 16.963101344312847, 82.31209873030124 15.00726806926768" stroke="#fa5252" stroke-width="0.5" fill="none"></path><path d="M-0.7590031772851944 -1.8423707336187363 C26.074322745203972 -1.129445019364357, 52.959879502654076 1.135119017958641, 79.42651461064816 1.2867705971002579 M0.9181193187832832 0.5376369878649712 C31.089011736214164 -0.26095209270715714, 61.54396940022708 -0.16985688358545303, 79.17286790162325 -0.49352074414491653 M81.95441149175167 1.3971183449029918 C80.13032029420137 3.806177169084549, 79.50188754349946 9.249186798930168, 78.88210152089596 21.922515168786045 M79.04084695130587 0.7231864854693411 C80.82991062104702 7.395724512636661, 79.96231471002102 15.403215847909449, 80.73078382760286 19.66614221781492 M80.18795250356197 20.65529944002628 C53.151300355792046 21.287439987063404, 26.724496230483048 20.504488155245777, -1.5274391323328018 20.9856431633234 M80.61505926400423 19.525732748210427 C48.72094172984362 20.983445154130454, 16.339893348515027 21.21182368844747, 0.24921763688325882 19.984549991786476 M-1.6584777981042857 19.618207708001133 C-1.6953898087143893 13.332952976226803, -1.2299199715256688 7.602156862616537, -0.2928300052881241 0.8028147369623184 M0.6009613350033758 19.004601947963234 C-1.026878923177719 12.687003858387467, -0.12917026877403254 7.31129267066717, 0.7586869075894354 0.5757162496447561" stroke="#999" stroke-width="1" fill="none"></path></g><g transform="translate(530 210) rotate(0 90 10)"><path d="M0 0 C0 0, 0 0, 0 0 M0 0 C0 0, 0 0, 0 0 M-0.6692682690592358 5.7315225288766545 C2.1668641541329015 4.734410076598066, 2.8637174978858337 2.625099533569496, 5.020637106480545 0.913121361642819 M-0.1356362856598446 6.28099320088803 C1.3400808187831674 4.919760437962202, 2.7769666958955583 2.8740526055921345, 5.334341969671196 0.5605724375543408 M1.597163070095669 12.838735181510032 C1.9745522425341888 9.412523340412026, 4.882855061279322 4.796958115222875, 10.45374384070648 -0.4324543599888919 M0.6133224913011897 11.470156193196356 C3.545495244027909 8.855311142891438, 6.855765266636125 4.875021516546158, 11.337061960947645 -0.18347219870539888 M-1.8436208097776632 18.74020810322898 C6.742327113561167 10.853890243722347, 12.74300103282492 5.366663090215383, 17.309120200111945 -0.4208550595748255 M-0.1569173886021833 17.601051664818698 C4.75946574798052 14.277870676586083, 7.397068832676704 8.225974081765475, 14.916907310023387 1.070727475632446 M0.3431049581055845 19.83949595868502 C6.247703873742552 15.985181506873463, 11.864307613488897 10.773298809482158, 19.98636144986179 -0.5492319265217063 M1.5578008662347997 22.425677264033894 C5.327694735010434 16.86890254259147, 9.509081561549644 12.287463783301009, 22.076708002293373 0.5692004984408143 M7.803129952302424 22.84534527352341 C13.232453953916888 15.882186608491327, 19.11636363866914 9.257416726513785, 26.04967318722269 1.7109966607776226 M6.389972705295531 22.331875003783782 C12.278952239033389 17.352186623488137, 17.316539843661058 10.931751820940274, 26.748227680709572 -0.36504823397726405 M13.86368724209133 22.765537132162468 C18.443818984606533 14.848370608924597, 25.658797058685657 8.006607855766084, 32.24720862642566 1.703438885627616 M13.251059713483485 22.622103702861683 C20.375648615414164 12.155414272904052, 28.005885021587936 4.5886410810769505, 32.427910575127996 0.3672046960576658 M19.023693925741295 21.587518038797736 C25.441056841648276 14.828112590493603, 32.092949890373596 6.448334921566806, 37.71850986573969 -0.9750837477761785 M18.825770004692654 21.601925099838137 C23.774137045911438 14.88465594995603, 30.424640148081348 7.79954478292589, 37.855152299442636 0.8918335271161517 M23.421928217483327 23.514271176733665 C28.2997793736799 16.532300510350666, 37.454333315857646 7.397401754463939, 43.74298011939578 0.9877869438706881 M24.290235308779046 21.565875112392597 C30.61558971496533 12.594130489165455, 37.93929499649291 3.871992262334288, 43.010772083509494 0.5736866768776423 M28.088557215586416 22.501993050165805 C36.253500410904905 12.817704772702658, 44.89138881566102 4.039202395879585, 46.99141148566294 2.157622464763765 M28.813538739636652 22.08514047909561 C34.98725660941838 15.879791111889475, 40.3336398954268 9.255917277241984, 46.61854054122257 -0.6957366160873129 M34.69360913428157 21.722416842398612 C40.74849535048509 15.493863435592681, 42.92670666957258 10.604375229075412, 51.27445717877215 -0.1844690017924897 M33.55618702712148 21.219882117626636 C40.40358816223052 14.093083292840749, 48.49895656141497 5.7577002541411595, 54.14365190243787 0.7140370659007438 M38.79850107183779 21.100489057627627 C47.938507826269344 12.712051797689844, 54.40437285515473 4.2297014024975255, 56.79415929699243 1.495834048397466 M39.17163828512753 22.80691176655621 C45.12870501460679 15.91887116730549, 51.30384763226584 8.64616585873931, 57.29425178104938 -0.5398680385876453 M45.60451124248607 20.77669287915731 C51.199645302809756 14.621028880060233, 59.79579645279926 3.613566931607444, 63.892421054554774 0.4483897986380825 M43.80477424351079 21.6720153435638 C48.67982511180667 16.38474175124092, 53.89130484739901 11.794118291872936, 64.01990940691311 0.43864648812697027 M51.20430674449541 20.644724811183195 C54.74962263203202 13.039092433843653, 61.271593431176825 5.159946543113927, 70.30253454972818 -0.823730246875094 M50.59342801616528 22.917629587219935 C56.86225063640896 13.649782337960435, 65.28676759305576 6.108612023177201, 68.01314539392307 0.07232988461513656 M54.330415792096815 19.81381803700976 C61.383227119831375 17.600563160856307, 64.44855299745241 10.61534125446736, 74.89765299674364 0.8980820951624082 M55.66685633294698 21.135165415204092 C60.51846148937385 17.032409240567716, 64.49971852272704 10.709536131672921, 74.70790397193524 -0.4770944314436747 M61.60675548355928 20.14641906083252 C67.80067186524967 17.515672522627753, 70.75520406080665 10.432541715328021, 78.94231849387018 1.0856483289461067 M59.6472673077499 21.69268456608679 C64.06836206417182 17.922163376748692, 68.07814088838757 12.464378705206414, 78.78108075484363 -0.0212522214789459 M67.29710403311381 21.720511065955954 C70.48370231689827 18.276820459732736, 73.70913833618833 12.72197041637378, 85.84093425533877 -1.0736733622195231 M65.64829267043004 21.947222957547503 C73.57776924664246 13.4238261028688, 79.72436631157552 5.1604138379916655, 84.15099497250424 -0.13279506781120176 M70.5566285390294 22.36729055657559 C76.68225064124417 12.387143992401871, 86.16144730952458 6.074863561173778, 90.38929237941841 0.8606885258610504 M70.7765155348814 22.532467328156763 C76.86372009317266 14.665054886393634, 83.1683117053715 7.831146205307624, 89.47891723881105 0.14227626813008953 M75.18035721553706 21.133490715995897 C83.81099427889355 15.676664688471682, 86.67907023689916 9.256449719490563, 94.52304608034015 0.044842176492295494 M76.12994263095997 22.571078595594038 C80.48364677585438 15.909513684958835, 84.56058004037155 11.247041387800111, 96.16754178362012 -0.5030647959756038 M82.85470716090578 21.819058048412415 C88.23495283181381 12.320340027927102, 96.19845836498848 7.563983332501442, 100.56923745637292 -0.11189090613024888 M82.29953207255977 20.962368498429868 C86.04174174172694 16.760682459818398, 89.9364700114403 12.892775417790917, 99.86251422082537 -0.34919402155774293 M88.90595658936655 20.439475737129598 C93.54150973267564 17.251639686779033, 97.28338604329835 12.617352182028124, 106.99476972174776 1.5153474612978712 M87.36766558953678 21.594622954343706 C91.66047311865262 17.15836670985251, 95.26056305553222 11.605237650270158, 106.45090378028286 0.5624870090631262 M91.5517725991884 20.763440286342984 C100.89447742475468 12.796883993269972, 108.54194086913479 6.710713552713287, 109.65793497473366 -0.6953712170278052 M92.40967629578502 22.63277870190609 C99.99946704569618 14.173872211297526, 106.62896203030658 5.255567709026632, 111.56273107588656 -0.2827724655424575 M98.9936243756118 22.529894459579822 C103.03357541678434 14.123416541338882, 109.80664881720651 6.015013596129606, 116.90082740057113 1.10427082241997 M96.83626189216997 22.48545623901927 C104.53100005863347 14.79574201192528, 111.70242810714706 6.30833251368788, 115.91338130850198 0.09396055252775426 M101.94860610387727 21.21215602036731 C105.03332749475157 16.578337798454903, 110.95629641648975 11.6340186445844, 122.08116618450066 -0.003033656831604503 M103.17530757955714 21.319088563585446 C107.56779833930594 15.819436573782912, 111.33296347318638 11.466121932984173, 122.08542717899462 -0.32056843882403996 M106.18125988225378 23.782046472901015 C110.81567762038829 15.945135748337972, 116.24519030048421 12.974083647439866, 128.10411842479124 2.0639118494130386 M107.85370897184052 22.57204991417518 C114.32924601995464 13.145648689651265, 122.20309124758616 4.6093570381914155, 127.31045180125847 0.9823272989727272 M111.59598892497239 20.926924000485386 C119.10485908183533 14.105908165413105, 126.26952764149637 4.896827804459091, 134.5147123356739 -1.3981594755416467 M112.53978529887614 20.921688708467926 C119.42413489900207 14.556444462656806, 125.05082260039468 9.477817811480081, 132.81146190514954 -0.9996913164024903 M117.48858533030204 22.58736010731596 C124.020926209588 13.936395791246134, 131.98785625463958 8.972674405257216, 138.74936501541762 1.6606988724998502 M117.64480717455797 21.572004185034217 C124.32059047026752 16.2497433257716, 128.9589357070123 10.450776414771001, 137.30441560456185 0.507687453620818 M122.29470231247376 21.419462976697204 C130.08380520849084 16.613201294724362, 138.56748092231788 8.014629756621389, 143.8843546782534 -0.494029923157953 M124.32146882874201 21.465969761553524 C130.29002303588427 15.341891165467072, 135.8462866323297 8.577641476834062, 142.99669462935137 -0.7322504732778299 M128.84138196975653 20.332554112824667 C131.83533017498675 15.734999288773512, 139.2128583269498 12.06726212341143, 147.88734842245023 0.156350641680433 M129.96541587532226 22.57320967659639 C134.12272012076787 15.703750284437431, 140.56161572528663 8.678225827704058, 149.0886320934121 -0.6795683585279448 M136.09552751638137 19.951491699002773 C139.46968326828713 15.01026952735289, 145.6383927146275 13.320994892694289, 155.36587446223916 -1.1539262496805094 M134.21371754415475 21.102322347842247 C139.70779416254783 15.441549331394388, 144.64685165703918 9.71045863487581, 153.77198472660007 0.19464471554995555 M140.4154310506173 22.15434723942711 C145.57996761456218 15.139535395801452, 153.02136771478195 8.862113988273842, 158.81884989588912 1.5625859069547516 M140.44639444913346 22.788557013861677 C146.13229034053694 13.207717645010332, 153.00929086187483 6.722713084231835, 159.73146064280922 0.1959504875264031 M147.29924578669525 21.53472891740209 C153.86516807223373 15.496699764787987, 157.94097786167478 4.335294822364528, 166.38505293763114 0.5088702948906842 M145.78489082011438 22.106137092334095 C152.7273701234958 14.332540155324676, 159.93056796063263 5.381585749017425, 164.1431915718956 -0.381115124919134 M148.6365138228843 20.939458237123304 C158.6533622030074 11.885734127825836, 167.13361032162985 5.681482530829392, 171.09465068573422 1.6411234183228203 M150.59360227099154 21.555936821830088 C158.1993307885357 13.147786413776776, 163.99131636413154 6.427756695689723, 170.1762606277532 0.03463461678387603 M154.4566383734154 22.930893381895174 C164.44232770661324 14.212418440655847, 170.85009597953842 3.9227696061627384, 174.61767135442938 0.1310784605556421 M156.4783480316209 20.87780462002908 C160.24796216603022 16.451567165388433, 162.84716952559282 11.91428608896106, 174.99117454023803 -0.4966393696850844 M162.18041153655753 21.324605855913248 C166.9308056932809 16.998860060867596, 169.31390109938854 12.035421500126747, 180.51553204198558 -0.0963180742153611 M161.78789871589646 22.338239725501623 C165.87631918748798 16.118247471206065, 169.1373169411832 11.571442824765194, 179.24139142324407 -0.13812534575552604 M168.36848652654174 20.651703842481993 C170.89979813424836 15.52021835164691, 177.4762467696707 9.1791735677089, 180.0849797017193 7.8918032193192715 M167.61244855367426 21.94271555592718 C171.7167745719108 14.814038769571322, 178.0216627142719 10.737920425097608, 179.16726174571278 6.728348828257012 M170.56333475437282 23.10986391540444 C175.22615844688454 17.442093066818774, 179.10600942191476 13.319126943696299, 180.4789797872324 11.869971326510775 M171.41628927056013 22.47731479305601 C173.48677805798098 19.107176235359805, 175.89266801599317 16.4583724632271, 180.79613896049747 12.66042400612997 M177.05945091683168 21.89239842448681 C177.85142414540778 20.811025079102667, 179.51340615283493 19.641308492974428, 179.5967009678828 18.36922079008864 M177.1184469698717 21.69087471965998 C178.13341660652694 20.44051240458259, 179.35281709881224 19.353183560910068, 180.06461163464658 18.485016144633754" stroke="#be4bdb" stroke-width="0.5" fill="none"></path><path d="M-1.8423707336187363 -1.0776825100183487 C67.69032728672028 -0.6610281482338904, 138.45765970647335 0.10961747020483026, 181.28677059710026 1.7034926265478134 M0.5376369878649712 0.27504123002290726 C66.14839924126863 -1.7365863859653474, 131.87267925590277 -2.479746872186661, 179.50647925585508 -0.7398406192660332 M181.397118344903 0.29962681233882904 C179.09092139452696 3.978128880262374, 180.01361226290464 7.495971158146856, 181.92251516878605 21.729712471365925 M180.72318648546934 0.9348400905728338 C179.8155885607004 5.017949484288692, 180.09336742460727 10.63219443708658, 179.66614221781492 20.35099614411592 M180.65529944002628 19.95926950871944 C111.07074823975563 20.509591789543624, 39.46008925139904 18.64171812087297, 0.9856431633234024 21.981136783957478 M179.52573274821043 20.64548886567354 C131.30974922329187 21.296094295382495, 82.45484205335379 21.35632431209087, -0.01545000821352005 20.21265352517366 M-0.3817922919988632 18.504272922873493 C-0.16145645231008532 10.973115444183348, 0.5330544844269752 3.7139153629541397, 0.8028147369623184 0.6701679080724716 M-0.995398052036762 19.140630133450028 C-0.4725007116794584 12.36324822157621, 0.821956008672714 5.408505775034426, 0.5757162496447561 0.3990866020321846" stroke="#999" stroke-width="1" fill="none"></path></g><g transform="translate(710 210) rotate(0 30 10)"><path d="M0 0 C0 0, 0 0, 0 0 M0 0 C0 0, 0 0, 0 0 M-0.9277183122606822 6.889487151851051 C1.9293222096867173 3.8020966664649105, 3.6788218625101576 2.72086760278275, 5.540029394211715 0.4982424329814725 M-0.3782476402493069 6.388295812954299 C2.2276635124136366 3.790797391816563, 4.142689026830114 2.023183965221179, 5.187480470123238 0.20912775805566844 M0.9310221084486354 11.148375517546713 C3.983111257458498 7.395273206282683, 5.848507050468842 4.143504741911892, 10.23213031436218 -0.3389845256611941 M-0.43755687986503977 12.472030628144323 C3.196799303142634 9.465945276107012, 5.481464130613641 6.0767649763169835, 10.481112475645673 0.6789227898314358 M0.17325418903024392 19.31327555971282 C5.212648967551176 12.569807056651197, 12.643525650304312 6.762845711808515, 14.870637647345145 -0.41215966577409 M-0.9659022493800382 19.092837056983882 C4.407820610969315 13.066078237846918, 7.0561189954391 8.690813523386115, 16.362220182552417 -0.23160267556784842 M0.2563756402020658 21.328591437934975 C8.700832492646907 14.458180780518273, 15.806497435343491 4.684962364551545, 20.77993742218044 -1.8434721330017325 M2.842556945550939 20.88638193339024 C7.565935357594206 14.658453965230441, 13.274945153067355 9.726094063719671, 21.89836984714296 0.008113232830119443 M7.889132987609354 22.297862574367603 C13.030434358869 16.07002413137679, 18.531714382490847 9.520823174930673, 27.667074042048664 -0.7323400346550404 M7.3756627178697265 22.574471972792228 C14.161640862144168 15.735970213109383, 19.53312726799889 8.236574475746428, 25.591029147293778 0.5045452522125782 M13.847001488030585 21.327502865929024 C19.3425770639797 14.978458508689602, 25.92768708805913 7.334582586536877, 33.69719290868083 1.8947276250704412 M13.7035680587298 21.652437087733166 C17.41391994548642 15.36621369667167, 24.019251377963904 9.778517436811033, 32.36095871911088 0.5341628940089826 M17.29589042723475 22.78484162931478 C23.97107532649168 16.107973429765398, 29.026219061010504 10.280171482373161, 35.64557830784594 0.5456851628702601 M17.31029748827515 22.228085110533595 C24.469050550988236 14.694424797168686, 31.23454977067655 6.9034777968878345, 37.51249558273827 0.5094614905398807 M25.260320206952855 20.533994860329322 C32.5800671646429 15.250521028399488, 37.74151407175222 6.465760005433552, 43.64612564127498 1.725273574548865 M23.311924142611787 21.507573052622966 C29.679185915092035 13.451424049688026, 36.29751725923349 6.591067247790731, 43.23202537428193 0.6912855532347209 M28.874950112953893 22.4735418756682 C32.23648365852428 18.512928225277342, 36.49000568548522 10.929240892551539, 49.44286919473696 0.47269717680180534 M28.4580975418837 22.58308374632183 C34.0481187181082 16.205670150084007, 39.23203082539591 9.727572297242927, 46.58951011388588 -0.023494585585947192 M34.133050546968875 22.99884867113587 C38.765708480736265 14.30271154175233, 44.755084981820985 8.62432866811781, 53.13845436996287 0.8239469654335387 M33.6305158221969 21.145149203059642 C38.20249400015935 18.049226939512046, 41.56034855544319 13.527743481718854, 54.036960437656106 0.610340585507334 M38.13803079476679 23.539744563427874 C42.33209995995924 17.913833309170332, 46.409840021427854 10.911702582141862, 59.44566545272173 0.34947725713960764 M39.84445350369538 22.270327255156943 C45.74154072633495 15.5980551988985, 51.27462722523695 7.270909389221556, 57.409963365736616 0.9740363988351071 M43.851911258078644 21.02284554834867 C51.893381563105585 15.538539403894987, 55.087763981248294 8.110846950676093, 62.467720757772994 0.880657788392778 M44.747233722485134 21.133524914043193 C50.771051851596724 14.978869898746842, 57.49148142605523 8.201702417371052, 62.45797744726188 2.5613161064951377 M48.416600793311375 20.490755206661206 C52.414430516722 15.772420453452295, 56.11783079510955 14.427805312852657, 61.27893897411301 9.19521904329127 M50.57586033054628 21.80787707263408 C52.47266452405283 19.605178974516825, 56.01206738666183 14.70617116801089, 62.13019609902873 7.027895849964679 M54.46926908128377 22.400940380490347 C57.46497698972841 19.95600903450195, 58.07303438103022 18.260063899548097, 62.51528031349537 13.608150656219777 M55.129942770380936 21.780586789793297 C57.526069541696216 19.40036868318273, 58.81925455562511 17.846260829133293, 61.827692050192326 14.035092755105552" stroke="#868e96" stroke-width="0.5" fill="none"></path><path d="M-1.0776825100183487 -0.8124410957098007 C19.033398419618607 2.004834161698818, 40.1815734654665 1.8394818171858787, 61.70349262654781 1.292576089501381 M0.27504123002290726 0.5152144357562065 C23.737277351319793 0.2837274521589279, 46.81536582857371 -0.8161029368638992, 59.26015938073397 -0.8465325906872749 M60.29962681233883 -0.7141415923833845 C59.86663521081209 4.2591791450977325, 59.077542670071125 10.023774906992912, 61.72971247136593 18.950705304741856 M60.934840090572834 -0.333987958729267 C59.875413569808 7.439556099474429, 60.538953217864034 14.657672606408594, 60.350996144115925 20.934872619807717 M59.959269508719444 21.89845539629459 C46.92305010557175 21.312093396484848, 31.637792006134987 21.182232995331283, 1.9811367839574814 19.453698411583897 M60.64548886567354 20.393034927546974 C37.76091092079878 20.336853110790248, 15.39306423813104 19.699989640712733, 0.2126535251736641 20.99831365793943 M-1.4957270771265025 19.75826002657413 C-0.8644094601273535 15.25560617446899, -0.1269822254776955 10.408485159277914, 0.6701679080724716 1.6750905662775035 M-0.8593698665499685 19.35717176645994 C-0.0818534791469574 16.354903705418106, 0.6384946405887602 11.982266686856743, 0.3990866020321846 0.30936669558286667" stroke="#999" stroke-width="1" fill="none"></path></g><g transform="translate(330 10) rotate(0 95 22.5)"><text x="0" y="32" font-family="Virgil, Segoe UI Emoji" font-size="36px" fill="#999" text-anchor="start" style="white-space: pre;" direction="ltr">JavaScript</text></g><g><g transform="translate(87.50753338232744 369) rotate(0 2.4924666176725623 -69.5)"><path d="M-0.4874646574258804 -0.8064786046743393 C-3.0759375202905934 -10.589392225941022, -20.594925222919287 -36.482186930378276, -16.63625961735952 -59.34409123361111 C-12.677594011799755 -82.20599553684394, 16.613816994477233 -124.89596126178901, 23.264528975932716 -137.9779044240713 M1.4574776680860668 1.384516182532534 C-1.1160555656411302 -8.167559341698265, -20.701333979136272 -34.45925828060446, -17.126886354378566 -57.98731388003566 C-13.55243872962086 -81.51536947946686, 16.06267022660205 -126.15159336458582, 22.904163416632308 -139.78381741405465" stroke="#999" stroke-width="1" fill="none"></path></g><g transform="translate(87.50753338232744 369) rotate(0 2.4924666176725623 -69.5)"><path d="M16.48460098660173 -108.76414476202177 C18.469656872006347 -115.05542516176648, 21.80172299893681 -121.19616516992654, 24.844579737790717 -137.9475787764881 M17.74476038223686 -109.60995805875706 C18.71578033647321 -121.19586355275585, 20.598575208452765 -132.0088011489099, 21.929478351184024 -138.80661166817882" stroke="#999" stroke-width="1" fill="none"></path></g><g transform="translate(87.50753338232744 369) rotate(0 2.4924666176725623 -69.5)"><path d="M-1.3336282312452639 -118.94406175215993 C4.30065362525132 -123.04674480318134, 11.336799315742306 -127.07126877096488, 24.844579737790717 -137.9475787764881 M-0.07346883561013584 -119.78987504889521 C7.22899276146239 -127.86629754424972, 15.415230307373132 -135.07795005263299, 21.929478351184024 -138.80661166817882" stroke="#999" stroke-width="1" fill="none"></path></g></g><g transform="translate(70 370) rotate(0 47 22.5)"><text x="0" y="32" font-family="Virgil, Segoe UI Emoji" font-size="36px" fill="#999" text-anchor="start" style="white-space: pre;" direction="ltr">Fetch</text></g><g transform="translate(10 10) rotate(0 410 270)"><path d="M-0.22939415574073793 0.5147082388401032 C213.3713121265173 -1.8644511884450916, 426.1559966802597 -1.6469861692190175, 820.430109590292 0.22003298401832583 M-0.3308528393507004 -0.19740829765796664 C287.9516474843025 -2.327308671474457, 576.1052934378386 -1.5978133368492125, 820.2794236689806 0.05992536246776581 M819.5528406083583 0.7690060675144196 C820.3367745751142 142.29845912754539, 820.2431956642865 284.66903157234196, 820.5785491883755 540.7478720724582 M820.2923135310411 -0.13354311287403106 C820.2856458854675 144.33859927654268, 819.8397397232055 287.9668909579516, 820.1310598880052 539.9918539017439 M819.3890243470669 540.3942572653293 C496.95578346550457 541.6109052103758, 172.91706773042668 542.3214732569456, -0.37941380143165593 540.5163910925388 M820.0996870547533 539.9938199967146 C541.8561973512172 542.4375616180896, 263.38170484006395 541.7065405952931, -0.07635845839977265 539.7008545845747 M-0.11713200211524964 540.3211258947849 C1.3807449823617937 385.19701550900936, 0.431367731690407 229.53472763299936, -0.7963184416294098 -0.6874958932399751 M0.30347476303577425 540.2302864998579 C0.07682285904884338 412.8364712893963, -0.3069067895412445 285.73532880842686, -0.20249933898448946 0.3544078797101975" stroke="#999" stroke-width="1" fill="none"></path></g><g><g transform="translate(211.05885999910515 130.17790458606555) rotate(0 -0.5294299995525762 39.911047706967224)"><path d="M-0.34409123361110683 0.7720623582601547 C-0.21580553669479438 7.393123575371382, -0.1116779277099645 27.239011694599576, -0.036764423176464556 40.59764106763528 C0.03814908135703539 53.956270440670984, 0.16821165867167992 74.33142129275328, 0.10538979358989287 80.92383859647438 M1.6761221394035966 0.1317911510076375 C1.8063867883105134 6.338843906583887, -0.16067645910180856 25.710902878890437, -0.4482097094411075 38.882227787049494 C-0.7357429597804064 52.05355269520855, -0.1524314366931141 72.06856493877558, -0.0490773626321972 79.15974059996196" stroke="#999" stroke-width="1" fill="none"></path></g><g transform="translate(211.05885999910515 130.17790458606555) rotate(0 -0.5294299995525762 39.911047706967224)"><path d="M-9.58270563692609 52.88254402370542 C-6.854825161524161 59.66421558361384, -3.7922446340258764 65.31279440018469, 0.5010050974136173 80.19016947147438 M-11.362996978171264 50.439210777891574 C-8.391100179695046 58.45311372663035, -3.4121028154532747 68.28560636721346, 0.10073604353721732 78.80266980377027" stroke="#999" stroke-width="1" fill="none"></path></g><g transform="translate(211.05885999910515 130.17790458606555) rotate(0 -0.5294299995525762 39.911047706967224)"><path d="M10.934427136758277 52.47356342166394 C8.88902294823265 59.29161160735987, 7.175349361228886 65.03539842910371, 0.5010050974136173 80.19016947147438 M9.154135795513103 50.03023017585009 C6.145658122301212 57.993689238314225, 5.141801326019017 67.94544178346041, 0.10073604353721732 78.80266980377027" stroke="#999" stroke-width="1" fill="none"></path></g></g><g transform="translate(150 90) rotate(0 51.5 22.5)"><text x="0" y="32" font-family="Virgil, Segoe UI Emoji" font-size="36px" fill="#999" text-anchor="start" style="white-space: pre;" direction="ltr">Parse</text></g><g><g transform="translate(331.6574209245741 289) rotate(0 19.91822394092742 -28.587494814954653)"><path d="M1.0220955759286878 0.7755456537008285 C0.9972489262173588 0.997159124414126, -7.345994067868787 11.871824150470381, -0.49317113187908057 2.1017431825399395 C6.3596518041106265 -7.668337785390502, 35.03815031499768 -47.78202369604252, 42.13903319186693 -57.844940153881815 M0.09955702395178379 0.13710317655466508 C0.04866892523008274 -0.01806853240666284, -7.7654003164885665 9.972797025072683, -0.8299854543413856 0.5575836045946925 C6.105429407805795 -8.8576298158833, 34.4597802427614 -46.723780613737105, 41.71204619683487 -56.35417734631328" stroke="#999" stroke-width="1" fill="none"></path></g><g transform="translate(331.6574209245741 289) rotate(0 19.91822394092742 -28.587494814954653)"><path d="M34.290944815723556 -25.707109793460557 C37.01415789539573 -34.43532368207405, 38.09224662321276 -42.26902190287008, 41.544102972523994 -55.14155805655746 M32.1518361355349 -28.62221118006725 C36.01061475897495 -33.12207571925225, 37.07658942736773 -40.41528179033965, 41.54764322765333 -56.24990270831613" stroke="#999" stroke-width="1" fill="none"></path></g><g transform="translate(331.6574209245741 289) rotate(0 19.91822394092742 -28.587494814954653)"><path d="M17.87727835351643 -38.02423428147546 C25.133188044922242 -43.55029816928462, 30.664726816312893 -48.04204359031141, 41.544102972523994 -55.14155805655746 M15.738169673327775 -40.93933566808215 C23.10263363270531 -42.64141679163837, 27.735081201466077 -47.258274418695244, 41.54764322765333 -56.24990270831613" stroke="#999" stroke-width="1" fill="none"></path></g></g><g transform="translate(130 290) rotate(0 183 22.5)"><text x="0" y="32" font-family="Virgil, Segoe UI Emoji" font-size="36px" fill="#999" text-anchor="start" style="white-space: pre;" direction="ltr">Compile and Optimize</text></g><g><g transform="translate(450 390) rotate(0 40 -80)"><path d="M1.1642497926950452 1.1017431825399397 C14.434761260946592 -5.639172847072284, 74.0694964637359 -12.802865671118102, 80.64516438543797 -39.66995052397251 C87.22083230714003 -66.53703537682692, 47.27118945817153 -139.8803312689066, 40.618257322907446 -160.10076593458652 M0.3163422045204789 0.63455440803431 C13.395850904791926 -6.550974788923438, 73.39236323824463 -15.040793360232687, 80.0358302241657 -41.619249297836795 C86.67929721008676 -68.1977052354409, 46.623708208013944 -139.03775762544012, 40.17714412004687 -158.83618121759034" stroke="#999" stroke-width="1" fill="none"></path></g><g transform="translate(450 390) rotate(0 40 -80)"><path d="M62.71867631441222 -136.05167375178095 C53.317062143972706 -144.25748041418015, 44.62388264735064 -152.43713600187832, 38.52287992329337 -159.82322270588017 M61.85964342272149 -136.4283885550594 C56.53630047337205 -142.59246269987264, 51.542357751696166 -147.0377500377985, 39.61819488049485 -157.8749236331973" stroke="#999" stroke-width="1" fill="none"></path></g><g transform="translate(450 390) rotate(0 40 -80)"><path d="M43.920131526731204 -127.82156340917982 C41.70604969516414 -139.37978480417434, 40.25359275662856 -150.72947010886767, 38.52287992329337 -159.82322270588017 M43.06109863504047 -128.19827821245826 C42.056196986593164 -136.03926185823494, 41.311024999519766 -142.34468530569134, 39.61819488049485 -157.8749236331973" stroke="#999" stroke-width="1" fill="none"></path></g></g><g transform="translate(210 390) rotate(0 242 22.5)"><text x="0" y="32" font-family="Virgil, Segoe UI Emoji" font-size="36px" fill="#999" text-anchor="start" style="white-space: pre;" direction="ltr">Re-optimize and Deoptimize</text></g><g><g transform="translate(630 150) rotate(0 -10 30)"><path d="M0.6451643854379654 0.3300494760274888 C-2.779167692859968 3.4629646231730775, -19.39547720849514 10.119668731093405, -19.381742677092554 19.899234065413474 C-19.368008145689966 29.678799399733542, -2.4040147234996168 52.47194861670335, 0.7275715738534927 59.0074414819479 M-0.4752630415465684 -0.5422784943971783 C-4.105390749763076 3.2997848532007383, -20.141721611907705 11.326071603139862, -20.005203046193348 21.383757200976834 C-19.86868448047899 31.441442798813807, -2.880978169034546 53.40946920011503, 0.34384835273958725 59.80383509262465" stroke="#999" stroke-width="1" fill="none"></path></g><g transform="translate(630 150) rotate(0 -10 30)"><path d="M-22.792148588600334 42.42313573713125 C-13.937271574748054 49.7875821847706, -6.019725974039815 54.897522559957814, -1.135832885792479 58.1107699112501 M-23.192417642476734 41.03563606942714 C-18.529542379652383 45.06035351937361, -14.126911614762438 49.646169761779646, 1.2087045884225516 59.27918774499558" stroke="#999" stroke-width="1" fill="none"></path></g><g transform="translate(630 150) rotate(0 -10 30)"><path d="M-5.416213587251591 31.50540313302598 C-3.3597066551927823 43.297836142204005, -2.340768948489405 52.742343625375256, -1.135832885792479 58.1107699112501 M-5.816482641127991 30.117903465321874 C-4.566092733980119 36.47518679247314, -3.6826360350933216 43.272187724332824, 1.2087045884225516 59.27918774499558" stroke="#999" stroke-width="1" fill="none"></path></g></g><g transform="translate(570 90.19958426021026) rotate(0 69.5 22.5)"><text x="0" y="32" font-family="Virgil, Segoe UI Emoji" font-size="36px" fill="#999" text-anchor="start" style="white-space: pre;" direction="ltr">Execute</text></g><g><g transform="translate(710 310) rotate(0 10 -40)"><path d="M0.6182573229074477 -0.10076593458652505 C3.965325187643369 -6.987867266933124, 17.595985276500382 -27.52805138329665, 20.727571573853492 -40.9925585180521 C23.8591578712066 -54.45706565280755, 19.698343554139136 -74.19163148303826, 19.4077751070261 -80.88780874311924 M-0.5162963119056077 -1.1992719955835491 C2.679960893004512 -7.997733779211218, 17.02025867771047 -26.83670157130497, 20.161501186499372 -39.97622648880817 C23.302743695288274 -53.115751406311375, 18.575118204364554 -73.25249045199094, 18.331158740827814 -80.03642150060274" stroke="#999" stroke-width="1" fill="none"></path></g><g transform="translate(710 310) rotate(0 10 -40)"><path d="M31.701674296079965 -52.05235970443586 C25.35230556514609 -63.65303291138833, 20.73747326964078 -73.82982112739107, 16.381788609931245 -78.08201000885107 M31.705214551209302 -53.16070435619453 C26.263281980938345 -62.25363971653938, 22.679808366172395 -73.64112107274593, 19.079041337976232 -80.99557454929688" stroke="#999" stroke-width="1" fill="none"></path></g><g transform="translate(710 310) rotate(0 10 -40)"><path d="M11.325925096439956 -49.61333388677646 C12.17804844130727 -62.181824689689904, 14.77141654821262 -73.2214517003836, 16.381788609931245 -78.08201000885107 M11.329465351569294 -50.72167853853513 C13.419970203433529 -60.64394617995782, 17.37258799845756 -72.93351566713939, 19.079041337976232 -80.99557454929688" stroke="#999" stroke-width="1" fill="none"></path></g></g><g transform="translate(650 290) rotate(0 29 22.5)"><text x="0" y="32" font-family="Virgil, Segoe UI Emoji" font-size="36px" fill="#999" text-anchor="start" style="white-space: pre;" direction="ltr">GC</text></g></svg>